<svg width="18" height="10" viewBox="0 0 18 10" fill="none" xmlns="http://www.w3.org/2000/svg">
<path d="M1.0875 0.697657C0.8625 0.833594 0.75 1.04922 0.75 1.34453C0.75 1.48047 0.778125 1.64922 0.815625 1.71953C0.9 1.87422 8.5125 9.47734 8.65781 9.55234C8.78906 9.61797 9.21094 9.61797 9.34219 9.55234C9.4875 9.47734 17.1 1.87422 17.1844 1.71953C17.2219 1.64922 17.25 1.48047 17.25 1.34453C17.25 0.889844 16.9641 0.603907 16.5094 0.603907C16.3734 0.603907 16.2141 0.627344 16.1578 0.655469C16.1016 0.683595 14.4656 2.29141 12.5297 4.23203L9 7.75234L5.475 4.23203C3.53438 2.29141 1.89844 0.683595 1.84219 0.655469C1.67344 0.571095 1.26094 0.594532 1.0875 0.697657Z" fill="#0858B1"/>
</svg>
