<svg width="17" height="17" viewBox="0 0 17 17" fill="none" xmlns="http://www.w3.org/2000/svg">
<g clip-path="url(#clip0_73_78793)">
<path d="M0.896559 0.321648C0.68738 0.398016 0.395192 0.696844 0.322145 0.909344C0.288942 1.00231 0.2657 1.17497 0.2657 1.30778C0.2657 1.76598 0.0631608 1.53688 3.72879 5.20251L7.02254 8.49958L3.6989 11.8265C-0.00656578 15.5386 0.2657 15.2299 0.2657 15.7179C0.2657 16.1297 0.488161 16.475 0.860036 16.6476C0.972927 16.6974 1.0825 16.7174 1.2784 16.7174C1.7864 16.7174 1.48093 16.9863 5.18972 13.2841L8.50008 9.97712L11.7971 13.2709C14.0782 15.5519 15.1374 16.5845 15.2403 16.641C15.3665 16.7041 15.4395 16.7174 15.7052 16.7174C16.0571 16.7174 16.1932 16.6675 16.429 16.4517C16.7046 16.206 16.8108 15.7312 16.6846 15.3328C16.6315 15.1668 16.4589 14.9908 13.3012 11.8265L9.97761 8.49958L13.2846 5.18591C15.5657 2.90153 16.6116 1.83571 16.6548 1.74274C16.7444 1.55016 16.7577 1.14841 16.6813 0.922625C16.605 0.686882 16.3194 0.398016 16.0903 0.321648C15.8811 0.251923 15.5325 0.248602 15.32 0.318329C15.1706 0.368134 14.8784 0.65036 11.8303 3.69841L8.50008 7.02204L5.17312 3.69841C2.12175 0.65036 1.82957 0.368134 1.68015 0.318329C1.47429 0.251923 1.09578 0.251923 0.896559 0.321648Z" fill="white"/>
</g>
<defs>
<clipPath id="clip0_73_78793">
<rect width="17" height="17" fill="white"/>
</clipPath>
</defs>
</svg>
