<svg width="28" height="18" viewBox="0 0 28 18" fill="none" xmlns="http://www.w3.org/2000/svg">
<path d="M12.6328 0.692968C8.15938 1.14141 4.06328 3.53125 0.721875 7.64922C0.0492187 8.475 0 8.57344 0 9.01641C0 9.43203 0.0820312 9.57422 0.842187 10.4984C4.48984 14.9336 9.14922 17.3672 14 17.3672C18.9109 17.3672 23.5867 14.8953 27.2781 10.3508C27.9508 9.525 28 9.42656 28 8.98359C28 8.56797 27.918 8.42578 27.1578 7.50156C23.4773 3.02266 18.7797 0.59453 13.8961 0.638281C13.4586 0.643749 12.8898 0.665625 12.6328 0.692968ZM15.2359 3.27969C17.1664 3.69531 18.7852 5.11172 19.4961 6.99844C19.7531 7.68203 19.8188 8.08125 19.8133 9.02734C19.8133 9.79844 19.7969 9.96797 19.6711 10.4328C19.1187 12.5055 17.5055 14.1187 15.4328 14.6711C14.968 14.7969 14.7984 14.8133 14.0273 14.8133C13.0813 14.8187 12.682 14.7531 11.9984 14.4961C10.1117 13.7852 8.72266 12.1937 8.27422 10.2359C8.13203 9.61797 8.14844 8.28359 8.30156 7.67109C8.88672 5.34141 10.6586 3.67891 13.0375 3.225C13.5242 3.13203 14.7 3.15937 15.2359 3.27969Z" fill="#367AE3"/>
<path d="M13.043 5.95937C12.4797 6.14531 12.157 6.34766 11.7305 6.78516C11.1125 7.40859 10.8281 8.10859 10.8281 9C10.8281 9.91875 11.1125 10.6078 11.7523 11.2477C12.3922 11.8875 13.0812 12.1719 14 12.1719C14.8914 12.1719 15.5914 11.8875 16.2148 11.2695C16.882 10.6133 17.1719 9.92969 17.1719 9.00547C17.1719 8.71016 17.1336 8.33828 17.0898 8.16328C16.8109 7.09141 15.9086 6.18906 14.8367 5.91016C14.3445 5.78438 13.5078 5.80625 13.043 5.95937Z" fill="#367AE3"/>
</svg>
