<svg width="20" height="22" viewBox="0 0 20 22" fill="none" xmlns="http://www.w3.org/2000/svg">
<path d="M9.09763 0.0294294C8.34568 0.149742 7.69255 0.373179 7.18982 0.673961C6.41208 1.13802 5.7031 1.84271 5.23903 2.60755C4.99841 3.00287 4.78357 3.55287 4.66325 4.0599C4.53864 4.59701 4.50857 5.67123 4.6031 6.21263C4.8781 7.79388 5.82771 9.13451 7.25857 9.95521C8.66794 10.763 10.5457 10.8318 12.0883 10.1357C12.6039 9.90365 13.0894 9.54701 13.5922 9.04857C14.7179 7.92279 15.2121 6.64232 15.1433 5.06107C15.0789 3.65599 14.6019 2.5517 13.6222 1.55912C12.8402 0.764195 11.8648 0.252867 10.7863 0.0638046C10.4468 0.0036478 9.38122 -0.0178366 9.09763 0.0294294Z" fill="white"/>
<path d="M5.05859 10.6386C4.51719 10.7203 4.15625 10.8277 3.71797 11.0468C2.88008 11.4593 2.24844 12.1425 1.75 13.1695C1.12266 14.4628 0.804688 16.0484 0.804688 17.9218C0.804688 19.0562 0.886328 19.4601 1.24727 20.1734C1.38047 20.4355 1.51797 20.6117 1.81445 20.9082C2.23555 21.3335 2.60078 21.5742 3.11211 21.7546C3.82109 22.0125 3.58477 22.0039 10.1547 21.991L16.166 21.9781L16.5312 21.8664C16.9953 21.7203 17.2402 21.6128 17.5496 21.4152C18.2672 20.9597 18.7957 20.2378 19.0234 19.4214C19.1609 18.9101 19.1996 18.2999 19.1523 17.3589C18.9375 13.148 17.3391 10.7761 14.6191 10.6257C14.0348 10.5957 14.0262 10.5957 13.025 11.2402C12.2516 11.7343 11.7145 11.9792 11.0012 12.164C10.4641 12.3058 9.50156 12.3058 8.96875 12.1683C8.2082 11.9707 7.69688 11.7343 6.92344 11.2316C6.63984 11.0468 6.2918 10.832 6.14141 10.7546C5.89219 10.6257 5.83633 10.6128 5.51836 10.6171C5.325 10.6214 5.11875 10.63 5.05859 10.6386Z" fill="white"/>
</svg>
