<svg width="22" height="22" viewBox="0 0 22 22" fill="none" xmlns="http://www.w3.org/2000/svg">
<path d="M9.65938 0.751953C7.35625 1.06562 5.31523 2.07539 3.69531 3.69531C2.54805 4.83828 1.70156 6.21328 1.20312 7.73438C0.825 8.87734 0.6875 9.75391 0.6875 11C0.6875 12.259 0.825 13.1141 1.21172 14.3C2.2043 17.325 4.66211 19.7785 7.71289 20.7926C8.86875 21.175 9.74102 21.3125 11 21.3125C12.2504 21.3125 13.1184 21.175 14.2742 20.7969C16.8738 19.9418 19.0352 18.0598 20.2598 15.5762C20.9816 14.1152 21.3125 12.6758 21.3125 11C21.3125 9.74531 21.175 8.87305 20.7926 7.71289C20.2984 6.21758 19.452 4.85117 18.3262 3.7168C16.6934 2.07969 14.6223 1.05703 12.3191 0.751953C11.6961 0.670313 10.2523 0.670313 9.65938 0.751953ZM12.3535 5.89961C12.4953 5.94258 12.7961 6.06289 13.0195 6.17461C13.3719 6.34648 13.4879 6.43242 13.8359 6.78477C14.1668 7.11992 14.2828 7.26602 14.4289 7.5625C14.7082 8.12109 14.7941 8.53789 14.7727 9.16953C14.734 10.0762 14.4762 10.6562 13.8145 11.3266C13.4879 11.6531 13.3676 11.7434 13.0195 11.9152C12.4094 12.2117 12.2203 12.2504 11.2492 12.2762L10.3984 12.302V12.723V13.1484H12.027C13.6426 13.1484 13.6512 13.1484 13.793 13.243C13.9906 13.3805 14.098 13.5352 14.1195 13.7328C14.1539 13.9777 13.9949 14.2527 13.75 14.3816C13.5652 14.4805 13.5523 14.4805 11.9797 14.4805H10.3984V15.0992C10.3984 15.6664 10.3898 15.7266 10.3039 15.8555C10.0805 16.182 9.73672 16.2809 9.43594 16.1047C9.13945 15.9328 9.09219 15.7953 9.075 15.0949L9.05781 14.4891L8.35742 14.4719C7.72578 14.459 7.64414 14.4504 7.53242 14.3687C7.11562 14.0594 7.11133 13.4879 7.52813 13.2344C7.65273 13.157 7.74727 13.1484 8.37031 13.1484H9.06641V12.7188V12.2891H8.42188C7.7043 12.2891 7.57969 12.259 7.37344 12.0355C7.27031 11.9281 7.24453 11.8551 7.22734 11.6574C7.21445 11.4512 7.22734 11.3824 7.31328 11.2578C7.48945 10.9957 7.62266 10.957 8.3875 10.957H9.06211L9.075 8.62383L9.08789 6.29492L9.19102 6.12734C9.25547 6.02851 9.36289 5.92969 9.47031 5.88242C9.63359 5.80508 9.74102 5.80078 10.8711 5.81367C11.8508 5.82656 12.1473 5.84375 12.3535 5.89961Z" fill="white"/>
<path d="M10.3984 9.04492V10.957H11.0387C11.3867 10.957 11.7777 10.9355 11.9066 10.9141C12.4996 10.8023 13.0109 10.407 13.2816 9.86133C13.4234 9.56914 13.4277 9.54766 13.4277 9.04492C13.4277 8.55508 13.4234 8.51641 13.2902 8.23711C13.0367 7.7043 12.5297 7.30039 11.9539 7.18008C11.8293 7.1543 11.4254 7.13281 11.0645 7.13281H10.3984V9.04492Z" fill="white"/>
</svg>
