<svg width="20" height="22" viewBox="0 0 20 22" fill="none" xmlns="http://www.w3.org/2000/svg">
<path d="M9.26953 0.158989C6.67422 1.03555 2.17109 2.70704 1.76719 2.94336C1.66836 3.00352 1.50078 3.14532 1.39766 3.26133C1.22148 3.45469 1.2 3.51055 1.11406 3.91446C0.753125 5.63321 0.615625 7.19297 0.611328 9.60352C0.611328 12.4695 0.783203 13.6211 1.38906 14.8285C2.14531 16.3453 3.70938 18.0168 5.875 19.6367C6.90625 20.4016 8.31563 21.2996 9.23516 21.7723C9.62617 21.9742 9.64336 21.9785 10.0258 21.9785C10.3867 21.9785 10.434 21.9656 10.7348 21.8195C11.6414 21.3684 13.1883 20.3844 14.2754 19.5637C15.2035 18.8633 15.8738 18.2832 16.6172 17.5355C17.6098 16.5344 18.2543 15.6793 18.7055 14.7598C19.0922 13.9691 19.1953 13.5309 19.3328 12.0957C19.4059 11.3609 19.4059 8.06953 19.3328 7.19727C19.1824 5.35821 18.9762 3.75117 18.8645 3.54493C18.7656 3.36016 18.4734 3.05938 18.2715 2.94336C17.9062 2.72852 13.8973 1.22461 11.375 0.360941C10.1031 -0.0773392 9.9957 -0.0859337 9.26953 0.158989ZM10.6832 5.80079C11.1344 5.88672 11.4738 6.13594 11.6586 6.51836C11.7746 6.7461 11.7789 6.80196 11.809 7.62266C11.8262 8.09961 11.8434 8.59805 11.8434 8.73125L11.8477 8.98047H12.7199C13.648 8.98047 14.0949 9.02344 14.3055 9.13516C14.5031 9.23828 14.8082 9.53477 14.8984 9.71524C15.1262 10.1578 15.1262 11.4168 14.8984 11.8551C14.7996 12.0527 14.5891 12.2676 14.3613 12.3965C14.1164 12.5426 13.7297 12.5898 12.7242 12.5898H11.8562L11.8305 13.5652C11.8133 14.1066 11.7832 14.6395 11.7574 14.7598C11.6715 15.1938 11.2891 15.602 10.8379 15.7395C10.6145 15.8039 9.39414 15.8039 9.15781 15.7352C8.90859 15.6621 8.59922 15.443 8.45742 15.2367C8.26836 14.9617 8.19531 14.6566 8.19531 14.141C8.19531 13.8918 8.18242 13.4406 8.16523 13.1441L8.13945 12.5984L7.08242 12.577C5.81914 12.5555 5.72461 12.5297 5.35508 12.1645C5.00703 11.8164 4.95547 11.6316 4.95547 10.7852C4.95547 9.93867 5.00703 9.75391 5.35508 9.40586C5.72461 9.04063 5.82344 9.01485 7.06953 8.98907C7.7957 8.97617 8.12227 8.95469 8.13516 8.92031C8.14375 8.89453 8.16523 8.3961 8.18672 7.81602C8.22109 6.78477 8.22539 6.75039 8.34141 6.51836C8.51758 6.15313 8.87422 5.88243 9.28242 5.80079C9.54023 5.75352 10.4211 5.74922 10.6832 5.80079Z" fill="white"/>
</svg>
