<svg width="16" height="16" viewBox="0 0 16 16" fill="none" xmlns="http://www.w3.org/2000/svg">
<path d="M5.10897 1.53083C5.02147 1.56521 4.88397 1.71833 4.84647 1.82146C4.82772 1.87146 4.8121 2.14646 4.8121 2.45896V3.00896L4.17772 2.98708C3.60585 2.96833 3.52147 2.97458 3.30272 3.03083C2.99022 3.10896 2.7871 3.22146 2.5496 3.43708C2.24022 3.72146 2.04647 4.08396 1.98397 4.49333C1.9496 4.70896 1.9996 5.40271 2.05272 5.45583C2.12147 5.52458 13.8777 5.52146 13.9465 5.45271C13.9808 5.42146 13.9996 5.29333 14.0152 4.99333C14.0527 4.29646 13.9183 3.91208 13.5027 3.49958C13.2277 3.22771 13.0402 3.11833 12.6965 3.03083C12.4777 2.97458 12.3933 2.96833 11.8215 2.98708L11.1902 3.00896L11.1808 2.41208C11.1715 1.75271 11.1621 1.72146 10.9371 1.56833C10.7902 1.46833 10.5246 1.47146 10.3715 1.57458C10.1777 1.70583 10.1558 1.79333 10.1558 2.43396V2.99958H7.9996H5.84335V2.43708C5.84335 1.79958 5.81522 1.69021 5.61522 1.56521C5.50272 1.49646 5.23397 1.47771 5.10897 1.53083Z" fill="white"/>
<path d="M2.04969 6.54668C2.00907 6.5873 2.00282 6.97168 1.99344 9.5373C1.98407 12.2592 1.98719 12.5029 2.03719 12.7123C2.10594 13.0029 2.22157 13.2123 2.43719 13.4498C2.65282 13.6811 2.91844 13.8561 3.18407 13.9404C3.38719 14.0029 3.44969 14.0029 7.99969 14.0029C12.5497 14.0029 12.6122 14.0029 12.8153 13.9404C13.0809 13.8561 13.3466 13.6811 13.5622 13.4498C13.7778 13.2123 13.8934 13.0029 13.9622 12.7123C14.0122 12.5029 14.0153 12.2592 14.0059 9.5373C13.9966 6.97168 13.9903 6.5873 13.9497 6.54668C13.9059 6.50605 13.2028 6.4998 7.99969 6.4998C2.79657 6.4998 2.09344 6.50605 2.04969 6.54668ZM8.38407 8.14355C8.72782 8.3873 8.74657 8.86543 8.42469 9.14668C8.00907 9.5123 7.37469 9.22168 7.37469 8.66543C7.37469 8.1373 7.94969 7.84043 8.38407 8.14355ZM10.9841 8.0998C11.4091 8.3248 11.4341 8.94043 11.0278 9.20918C10.4997 9.55918 9.81844 8.95605 10.0966 8.38418C10.2528 8.0623 10.6622 7.93105 10.9841 8.0998ZM5.60282 8.07168C5.74032 8.13105 5.92469 8.34355 5.97157 8.49355C6.12157 8.9998 5.56219 9.4748 5.07469 9.25293C4.86844 9.15918 4.68719 8.88418 4.68719 8.66855C4.68719 8.45293 4.86532 8.18418 5.07157 8.08105C5.19344 8.02168 5.46532 8.01543 5.60282 8.07168ZM5.62469 10.7561C5.90282 10.8998 6.05282 11.2248 5.97157 11.5061C5.92157 11.6654 5.71532 11.8936 5.57157 11.9404C5.51219 11.9592 5.37782 11.9686 5.27782 11.9623C5.13094 11.9529 5.07157 11.9311 4.97782 11.8529C4.73719 11.6592 4.64657 11.4248 4.71844 11.1717C4.82782 10.7779 5.26844 10.5779 5.62469 10.7561ZM8.24344 10.7373C8.75907 10.9529 8.79657 11.6467 8.30594 11.8998C7.97157 12.0717 7.59657 11.9436 7.42157 11.5967C7.33719 11.4311 7.36844 11.1311 7.48407 10.9623C7.65907 10.7186 7.97469 10.6248 8.24344 10.7373ZM11.0278 10.7904C11.5622 11.1436 11.3184 11.9686 10.6778 11.9686C10.1184 11.9686 9.83094 11.3342 10.1966 10.9154C10.4091 10.6717 10.7684 10.6186 11.0278 10.7904Z" fill="white"/>
</svg>
