<svg width="16" height="16" viewBox="0 0 16 16" fill="none" xmlns="http://www.w3.org/2000/svg">
<path d="M1.25342 0.0499411C0.700299 0.196816 0.231549 0.656191 0.0627987 1.21869C0.000298655 1.41869 0.000298654 1.51244 0.00654865 6.54681L0.0159237 11.6718L0.0846737 11.8593C0.234674 12.2531 0.540924 12.6031 0.903424 12.7937C1.3128 13.0093 1.10342 12.9999 5.31905 12.9999H9.12217L9.13155 11.7562L9.14405 10.5156L9.22842 10.2406C9.54717 9.21244 10.3034 8.47494 11.3315 8.19994C11.4972 8.15619 11.6565 8.14057 12.0159 8.14057C12.5253 8.14057 12.7847 8.19057 13.1722 8.35932C13.8534 8.65932 14.4722 9.31557 14.7222 10.0031C14.8909 10.4624 14.9065 10.6187 14.9065 11.7999C14.9065 12.3906 14.9159 12.8749 14.9253 12.8749C14.9347 12.8749 15.0284 12.8312 15.1284 12.7781C15.4659 12.5968 15.769 12.2406 15.9159 11.8593L15.9847 11.6718L15.994 6.57806C16.0003 2.99682 15.9909 1.43432 15.9659 1.31869C15.8784 0.890566 15.5065 0.406191 15.1065 0.196816C14.7065 -0.0156841 15.2253 -5.91278e-05 7.98467 0.00306606C2.35655 0.00306606 1.39717 0.00931644 1.25342 0.0499411ZM11.7003 2.10619C12.0378 2.24682 12.0409 2.74369 11.7065 2.90307C11.5753 2.96869 11.544 2.96869 8.0003 2.96869C4.49092 2.96869 4.4253 2.96869 4.29717 2.90619C4.04092 2.78119 3.9628 2.47807 4.1253 2.24682C4.2628 2.05619 4.05967 2.06557 7.99405 2.06244C10.9972 2.06244 11.6128 2.06869 11.7003 2.10619ZM13.719 4.12182C13.869 4.20306 13.944 4.31557 13.9597 4.49057C13.9784 4.67181 13.8878 4.82806 13.719 4.91244C13.6159 4.96557 13.2784 4.96869 8.0003 4.96869C2.72217 4.96869 2.38467 4.96557 2.28155 4.91244C2.1128 4.82806 2.02217 4.67181 2.04092 4.49057C2.05655 4.31557 2.13155 4.20306 2.28155 4.12182C2.38467 4.06557 2.6003 4.06244 8.0003 4.06244C13.4003 4.06244 13.6159 4.06557 13.719 4.12182ZM13.7534 6.14994C14.0409 6.32494 14.0347 6.72807 13.744 6.90619C13.6409 6.96869 13.5722 6.96869 8.0003 6.96869C2.42842 6.96869 2.35967 6.96869 2.25655 6.90619C1.9128 6.69682 1.97842 6.21244 2.37217 6.09369C2.41592 6.07806 4.97217 6.06869 8.04717 6.07182L13.6409 6.07806L13.7534 6.14994ZM7.81905 9.64057C8.0753 9.83432 8.06905 10.1906 7.80655 10.3812L7.70342 10.4531L5.07842 10.4624C2.73155 10.4687 2.44092 10.4656 2.32217 10.4187C1.97217 10.2874 1.93467 9.82182 2.25655 9.62494C2.35655 9.56244 2.40967 9.56244 5.04717 9.56869C7.67842 9.57807 7.7378 9.57807 7.81905 9.64057Z" fill="white"/>
<path d="M11.5312 9.08125C10.8688 9.25313 10.3219 9.77188 10.1156 10.4219C10.0594 10.5969 10.0469 10.7156 10.0469 11.0156C10.0469 11.3156 10.0594 11.4344 10.1156 11.6094C10.2094 11.9063 10.3844 12.1875 10.6125 12.4188C10.8438 12.6438 11.0688 12.7875 11.3813 12.9C11.5813 12.9719 11.6594 12.9813 12 12.9844C12.3188 12.9844 12.4313 12.9719 12.6094 12.9156C13.2125 12.725 13.7188 12.2219 13.9094 11.625C13.9531 11.4969 13.9813 11.3031 13.9906 11.0938C14.0094 10.6969 13.9625 10.4781 13.7781 10.0969C13.5375 9.60938 13.0281 9.20313 12.4969 9.07813C12.2469 9.02188 11.7594 9.02188 11.5312 9.08125Z" fill="white"/>
<path d="M10.0313 14.3934C10.0313 15.759 10.0281 15.7434 10.2 15.9059C10.2656 15.9652 10.325 15.984 10.4781 15.9934L10.675 16.0059L11.3375 15.5652C11.7031 15.3215 12.0063 15.1246 12.0156 15.1246C12.025 15.1246 12.3281 15.3215 12.6938 15.5652L13.3563 16.0059L13.5531 15.9934C13.7063 15.984 13.7656 15.9652 13.8313 15.9059C14.0031 15.7434 14 15.759 14 14.3902V13.1215L13.8063 13.2809C13.5563 13.4809 13.0594 13.7309 12.7344 13.8184C12.3719 13.9152 11.6531 13.9152 11.2969 13.8184C10.9594 13.7246 10.5281 13.509 10.2563 13.2996L10.0313 13.1246V14.3934Z" fill="white"/>
</svg>
