<svg width="22" height="22" viewBox="0 0 22 22" fill="none" xmlns="http://www.w3.org/2000/svg">
<path d="M9.81191 0.772942C7.8569 1.01381 6.1307 1.73238 4.55304 2.96882C4.13554 3.298 3.148 4.30963 2.82283 4.74319C1.75099 6.17633 1.08058 7.73392 0.811618 9.44004C0.707244 10.0984 0.707244 11.9129 0.811618 12.5713C1.1408 14.6547 2.09221 16.5776 3.54141 18.0951C5.12309 19.749 7.05 20.7727 9.32617 21.1701C10.0247 21.2906 11.506 21.3187 12.2446 21.2223C17.0138 20.6242 20.715 16.8707 21.2329 12.1016C21.2971 11.5195 21.265 9.96191 21.1767 9.42398C20.438 4.87165 16.809 1.35102 12.2808 0.789C11.7388 0.72477 10.3017 0.712727 9.81191 0.772942ZM11.4217 5.1647C11.5301 5.22893 11.6385 5.34133 11.7067 5.45775L11.8191 5.64643L11.8312 8.37622L11.8392 11.106L13.9026 13.1734C15.0387 14.3095 15.9941 15.2971 16.0302 15.3693C16.0663 15.4416 16.0945 15.5941 16.0945 15.7146C16.0945 16.2926 15.5324 16.6941 14.9985 16.4893C14.866 16.4412 14.3683 15.9634 12.5337 14.1289C10.5104 12.0976 10.2334 11.8085 10.1973 11.66C10.1652 11.5436 10.1531 10.6002 10.1612 8.56891L10.1732 5.64643L10.2816 5.45775C10.5265 5.04828 11.0082 4.92383 11.4217 5.1647Z" fill="white"/>
</svg>
