<svg width="19" height="18" viewBox="0 0 19 18" fill="none" xmlns="http://www.w3.org/2000/svg">
<rect x="0.666626" width="18" height="18" rx="2" fill="#367AE3"/>
<path d="M10.3567 3.14699C11.63 3.35451 12.7316 4.05134 13.4361 5.10171C13.7384 5.5526 13.992 6.14952 14.0971 6.66702C14.1714 7.02312 14.1893 7.78656 14.1355 8.1939C14.0843 8.58074 14.0433 8.73702 13.8972 9.10337C13.4335 10.2716 12.5471 11.6473 11.1355 13.3945C10.5899 14.0709 10.2363 14.4372 10.0288 14.5371C9.86228 14.6191 9.52668 14.6217 9.35503 14.5448C9.20388 14.4731 8.97331 14.2809 8.82216 14.099C8.75555 14.0171 8.60184 13.8377 8.48143 13.6968C7.40544 12.462 6.31664 10.8839 5.79658 9.80788C5.51989 9.23659 5.3047 8.60892 5.21247 8.10423C5.15098 7.75838 5.15098 7.07692 5.21503 6.73363C5.31494 6.19819 5.57369 5.57053 5.88881 5.10171C6.54977 4.11795 7.56171 3.44161 8.75299 3.18542C9.08603 3.11369 10.0134 3.09063 10.3567 3.14699ZM9.16289 5.64739C8.41994 5.82672 7.83327 6.42876 7.677 7.17683C7.6565 7.27162 7.63857 7.46889 7.63857 7.61748C7.63857 8.16828 7.80253 8.60124 8.16119 8.99064C8.55316 9.42104 9.06298 9.64392 9.66246 9.64392C10.618 9.64392 11.3994 9.03676 11.6377 8.10936C11.7043 7.84548 11.7043 7.38947 11.6377 7.1256C11.3559 6.02142 10.2747 5.37583 9.16289 5.64739Z" fill="white"/>
</svg>
