<svg width="19" height="18" viewBox="0 0 19 18" fill="none" xmlns="http://www.w3.org/2000/svg">
<rect x="0.666626" width="18" height="18" rx="2" fill="#367AE3"/>
<path d="M9.10068 3.04665C8.98614 3.11678 8.93237 3.22197 8.93237 3.37626C8.93237 3.47443 8.9464 3.5282 8.98614 3.5843C9.07964 3.72456 9.1451 3.74794 9.54249 3.77131C10.0731 3.80404 10.4448 3.8765 10.91 4.0378C12.0952 4.45156 13.0933 5.33518 13.652 6.46892C13.9582 7.09073 14.1055 7.67045 14.1453 8.39512C14.1616 8.74576 14.1686 8.78316 14.2224 8.86498C14.3673 9.08471 14.711 9.08705 14.8606 8.86965C14.9143 8.79251 14.9167 8.7668 14.9167 8.46992C14.9167 7.30111 14.4655 6.05984 13.6847 5.08038C13.4837 4.82558 13.0653 4.41182 12.8175 4.21546C11.8357 3.44638 10.6038 2.9999 9.46301 2.9999C9.2199 2.9999 9.16613 3.00691 9.10068 3.04665Z" fill="white"/>
<path d="M5.38166 4.4491C5.32321 4.46079 5.19932 4.50754 5.10582 4.55195C4.96322 4.61974 4.88141 4.68754 4.60557 4.95636C4.22687 5.3257 4.03986 5.56414 3.90662 5.8353C3.65649 6.35426 3.60741 6.85451 3.73364 7.59319C4.07259 9.59185 5.88892 11.9645 8.1003 13.297C9.58001 14.1876 11.0083 14.4611 11.9994 14.045C12.301 13.9188 12.495 13.7715 12.8994 13.3671C13.2337 13.0352 13.2898 12.9674 13.3623 12.8154C13.4067 12.7196 13.4558 12.5793 13.4698 12.5022C13.5189 12.2427 13.4558 11.9201 13.3085 11.684C13.2781 11.6326 12.9649 11.3053 12.6166 10.957C12.0509 10.389 11.9644 10.3142 11.8148 10.2394C11.4875 10.0781 11.1275 10.0734 10.8049 10.2277C10.681 10.2861 10.5852 10.3656 10.307 10.6391L9.96104 10.9781L9.75767 10.8425C8.74548 10.1716 7.74498 9.17108 7.07409 8.15889L6.93851 7.95552L7.27746 7.60955C7.55096 7.33138 7.63044 7.23554 7.68888 7.11164C7.84316 6.78905 7.83849 6.44075 7.67719 6.10413C7.60473 5.94751 7.54395 5.87972 6.96188 5.29999C6.61124 4.95169 6.28397 4.63844 6.23255 4.60806C5.99879 4.46312 5.63646 4.39533 5.38166 4.4491Z" fill="white"/>
<path d="M9.36294 5.40501C9.15021 5.53592 9.11515 5.82812 9.29281 6.00578C9.3793 6.09227 9.50086 6.13201 9.67618 6.13201C10.1133 6.13201 10.6767 6.37512 11.046 6.71875C11.2845 6.94082 11.4364 7.1442 11.5626 7.40601C11.7006 7.68652 11.759 7.91093 11.7824 8.23586C11.7941 8.40417 11.8151 8.53274 11.8385 8.57949C11.9296 8.75481 12.1868 8.82728 12.3621 8.72676C12.5304 8.63092 12.5444 8.59352 12.5421 8.22417C12.5421 7.9647 12.5304 7.85016 12.486 7.67483C12.2335 6.63927 11.5019 5.83747 10.5107 5.50553C10.0829 5.36293 9.51254 5.31384 9.36294 5.40501Z" fill="white"/>
</svg>
