<svg width="30" height="30" viewBox="0 0 30 30" fill="none" xmlns="http://www.w3.org/2000/svg">
<g clip-path="url(#clip0_32_3186)">
<path fill-rule="evenodd" clip-rule="evenodd" d="M15.0001 21.0082C14.1506 21.0082 13.3279 20.8895 12.5474 20.668L14.9983 26.004L17.4487 20.669C16.6696 20.89 15.8482 21.0082 15.0001 21.0082Z" fill="#367AE3"/>
<path fill-rule="evenodd" clip-rule="evenodd" d="M3.07571 24.397C2.85598 23.9892 2.74448 23.5176 2.77741 23.0233L2.87274 21.6427L1.96072 21.5684C0.742974 23.5133 0.0326412 25.771 0.0045162 28.177C-0.0476323 28.695 0.358481 29.1447 0.878968 29.1447L9.84069 29.1436C8.54643 28.3065 3.661 25.4826 3.07571 24.397Z" fill="#367AE3"/>
<path fill-rule="evenodd" clip-rule="evenodd" d="M27.1239 21.643L27.2192 23.0236C27.2521 23.5179 27.1407 23.9896 26.921 24.3972C26.7028 24.8018 26.3762 25.1427 25.9769 25.3793L20.1579 29.1426L29.1211 29.1415C29.5979 29.1462 29.9987 28.7498 29.9966 28.2627C29.9844 25.8245 29.2716 23.5364 28.0393 21.5684L27.1239 21.643Z" fill="#367AE3"/>
<path fill-rule="evenodd" clip-rule="evenodd" d="M13.9335 27.8821L10.1119 19.5615C9.57593 19.214 9.07878 18.8112 8.62886 18.3612C7.59443 17.3269 6.80879 16.0432 6.37152 14.6104L0.406026 18.2383C-0.257605 18.6275 -0.0441481 19.6392 0.718274 19.6996L4.74289 20.0334L4.52835 23.1404C4.50755 23.4527 4.67154 23.7347 4.9267 23.8795L12.8723 29.0179C13.237 29.2547 13.7248 29.1512 13.9617 28.7864C14.1144 28.5512 14.1255 28.2647 14.0164 28.0275L13.9335 27.8821Z" fill="#367AE3"/>
<path fill-rule="evenodd" clip-rule="evenodd" d="M25.4683 23.1406L25.2538 20.0336L29.2756 19.5863C30.038 19.5259 30.2758 18.5118 29.6121 18.1226L23.6282 14.6123C23.1908 16.0444 22.4054 17.3273 21.3713 18.3614C20.92 18.8126 20.4212 19.2166 19.8833 19.565L16.063 27.8824L15.9801 28.0278C15.871 28.265 15.8821 28.5514 16.0349 28.7867C16.2719 29.1514 16.7596 29.255 17.1244 29.0181L25.0699 23.8798C25.3251 23.7349 25.489 23.4529 25.4683 23.1406Z" fill="#367AE3"/>
<path fill-rule="evenodd" clip-rule="evenodd" d="M15.0001 19.251C18.9952 19.251 22.2607 15.9855 22.2607 11.9905V10.3369H7.73956V11.9905C7.73956 15.9855 11.0051 19.251 15.0001 19.251Z" fill="#367AE3"/>
<path fill-rule="evenodd" clip-rule="evenodd" d="M5.9766 8.60204C11.9922 8.60204 18.0079 8.60204 24.0235 8.60204C24.5089 8.60204 24.9024 8.20851 24.9024 7.72312C24.9024 7.23773 24.5089 6.8442 24.0235 6.8442H22.48C21.9774 4.77497 21.5915 2.23281 20.1676 0.808795C18.8953 -0.463396 17.9801 0.152487 16.8515 0.912104C16.3186 1.27069 15.7053 1.68354 15.0026 1.68354C14.3188 1.68354 13.7231 1.26871 13.2037 0.906886C12.0775 0.122545 11.1609 -0.515835 9.8363 0.808742C8.36808 2.27693 7.93418 4.7618 7.49756 6.84428H5.97664C5.49124 6.84428 5.09772 7.23777 5.09772 7.7232C5.09768 8.20851 5.4912 8.60204 5.9766 8.60204Z" fill="#367AE3"/>
</g>
<defs>
<clipPath id="clip0_32_3186">
<rect width="30" height="29.1892" fill="white"/>
</clipPath>
</defs>
</svg>
