<svg width="30" height="30" viewBox="0 0 30 30" fill="none" xmlns="http://www.w3.org/2000/svg">
<g clip-path="url(#clip0_23_1865)">
<mask id="mask0_23_1865" style="mask-type:luminance" maskUnits="userSpaceOnUse" x="0" y="0" width="30" height="30">
<path d="M30 0H0V30H30V0Z" fill="white"/>
</mask>
<g mask="url(#mask0_23_1865)">
<path d="M7.08987 0C4.66682 0 2.69531 2.0301 2.69531 4.45311V20.8581C3.63762 19.9983 4.86975 19.4531 6.21095 19.4531H7.96875V0H7.08987Z" fill="#367AE3"/>
<path d="M26.4258 21.2109H6.21095C4.33011 21.2109 2.69531 22.7929 2.69531 24.7265C2.69531 26.6426 4.25977 28.2422 6.21095 28.2422H15V25.6054H7.08987C6.60403 25.6054 6.21095 25.2123 6.21095 24.7265C6.21095 24.2407 6.60403 23.8476 7.08987 23.8476C8.961 23.8476 24.3389 23.8476 26.3955 23.8476C26.5139 23.3937 26.6896 22.9638 26.9709 22.6016C27.5899 21.8041 27.0678 21.2109 26.4258 21.2109Z" fill="#367AE3"/>
<path d="M27.0549 26.9555C26.7294 26.5685 26.5034 26.1062 26.3739 25.6055H22.0312V28.2422H26.4258C27.0334 28.2422 27.6009 27.6043 27.0549 26.9555Z" fill="#367AE3"/>
<path d="M18.5156 10.6055C16.393 10.6055 14.618 12.1179 14.2095 14.1211H22.8217C22.4132 12.1179 20.6383 10.6055 18.5156 10.6055Z" fill="#367AE3"/>
<path d="M18.5156 5.33203C17.5466 5.33203 16.7578 6.12083 16.7578 7.08987C16.7578 8.05887 17.5466 8.84768 18.5156 8.84768C19.4847 8.84768 20.2735 8.05887 20.2735 7.08987C20.2735 6.12083 19.4847 5.33203 18.5156 5.33203Z" fill="#367AE3"/>
<path d="M24.6679 0H9.72656V19.4531H27.3047V2.63672C27.3047 1.18049 26.1242 0 24.6679 0ZM23.7891 15.8789H13.2422C12.7564 15.8789 12.3633 15.4858 12.3633 15C12.3633 12.5381 13.8267 10.4245 15.9211 9.44191C15.3546 8.81759 15 7.99741 15 7.08983C15 5.15092 16.5767 3.57422 18.5156 3.57422C20.4546 3.57422 22.0313 5.15092 22.0313 7.08983C22.0313 7.99741 21.6766 8.81759 21.1101 9.44191C23.2046 10.4245 24.6679 12.5381 24.6679 15C24.6679 15.4858 24.2748 15.8789 23.7891 15.8789Z" fill="#367AE3"/>
<path d="M16.7578 25.6055V30L18.0281 29.1528C18.1759 29.0542 18.3458 29.0052 18.5156 29.0052C18.6856 29.0052 18.8556 29.0542 19.0032 29.1528L20.2735 30V25.6055H16.7578Z" fill="#367AE3"/>
</g>
</g>
<defs>
<clipPath id="clip0_23_1865">
<rect width="30" height="30" fill="white"/>
</clipPath>
</defs>
</svg>
