<svg width="29" height="29" viewBox="0 0 29 29" fill="none" xmlns="http://www.w3.org/2000/svg">
<g clip-path="url(#clip0_23_1855)">
<path d="M15.1646 20.5224C16.7521 18.935 18.1323 17.5548 19.3337 16.3535V10.7551C19.3337 9.51487 18.1657 8.42696 16.8343 8.42696H15.8087C15.8087 7.85679 15.8087 7.10762 15.8087 6.55429H16.3533C17.2368 6.55429 18.0118 5.79464 18.0118 4.92867V1.73073C18.0118 0.913745 17.3026 0 16.3533 0H14.2031V4.90196H12.5508V0H10.5212V4.90196H8.86879V0H6.70639V4.90196H5.05402V0H3.03664C2.08741 0 1.37817 0.913745 1.37817 1.73073V4.92867C1.37817 5.79464 2.15313 6.55429 3.03664 6.55429H3.47114V8.42696H2.61082C1.32199 8.42696 0.0012207 9.48907 0.0012207 10.7551V25.7755C0.0012207 26.9991 1.29385 28.2 2.61082 28.2H15.349L15.1646 28.0156C13.0989 25.9498 13.0989 22.5884 15.1646 20.5224ZM10.5212 19.1396V21.9003C10.5212 22.3565 10.1512 22.7265 9.69498 22.7265C9.23871 22.7265 8.86879 22.3565 8.86879 21.9003V19.1396H6.10813C5.65186 19.1396 5.28194 18.7697 5.28194 18.3135C5.28194 17.8572 5.65186 17.4873 6.10813 17.4873H8.86879V14.7267C8.86879 14.2703 9.23871 13.9005 9.69498 13.9005C10.1512 13.9005 10.5212 14.2703 10.5212 14.7267V17.4873H13.2819C13.7381 17.4873 14.108 17.8572 14.108 18.3135C14.108 18.7697 13.7381 19.1396 13.2819 19.1396H10.5212Z" fill="#367AE3"/>
<path d="M27.133 16.6165L26.8482 16.3316C25.4225 14.9061 23.109 14.9145 21.692 16.3315L19.6575 18.366L25.0988 23.8072L27.1331 21.7729C28.5547 20.3512 28.5547 18.0381 27.133 16.6165Z" fill="#367AE3"/>
<path d="M16.3327 21.6915C14.9111 23.1131 14.9111 25.4262 16.3327 26.8478L16.6175 27.1327C18.0391 28.5543 20.3522 28.5543 21.7739 27.1327L23.9302 24.9763L18.489 19.5352L16.3327 21.6915Z" fill="#367AE3"/>
</g>
<defs>
<clipPath id="clip0_23_1855">
<rect width="28.2" height="28.2" fill="white"/>
</clipPath>
</defs>
</svg>
