<svg width="30" height="30" viewBox="0 0 30 30" fill="none" xmlns="http://www.w3.org/2000/svg">
<g clip-path="url(#clip0_23_1877)">
<path d="M21.1524 8.11982V7.96875H21.0013C20.6227 7.96875 20.2391 8.06143 19.8598 8.24428L19.6126 8.36357C19.4326 8.34221 17.4774 7.98063 15.1758 7.97238C12.9162 7.96425 11.4048 8.27653 10.3875 8.36357L10.1403 8.24428C9.76088 8.06143 9.37727 7.96875 8.99876 7.96875H8.84766V8.11982C8.84766 8.57732 8.97981 9.04161 9.23043 9.4622L9.42784 9.79346C9.24579 10.4858 8.84766 11.5774 8.84766 13.2422C8.84766 13.3551 8.86404 13.4564 8.86802 13.5671C10.6784 13.392 12.7271 13.2756 15 13.2756C17.0469 13.2756 19.0921 13.3976 21.1291 13.6113C21.1341 13.4859 21.1524 13.3706 21.1524 13.2421C21.1524 11.6276 20.7551 10.4889 20.5722 9.79346L20.7695 9.4622C21.0201 9.04164 21.1524 8.57732 21.1524 8.11982Z" fill="#367AE3"/>
<path d="M28.2422 14.7538V0.9375H26.4844V3.13026C24.4423 2.33707 20.0674 0.9375 15 0.9375C9.93261 0.9375 5.55774 2.33707 3.51563 3.13026V0.9375H1.75781V14.7034C3.02918 14.4078 4.87575 14.0471 7.12255 13.7617C7.11411 13.5859 7.08987 13.4233 7.08987 13.2422C7.08987 12.1883 7.23833 11.1042 7.53277 10.0141C7.24177 9.41495 7.08987 8.76699 7.08987 8.11982V6.21095H8.99874C9.55406 6.21095 10.1068 6.32337 10.6441 6.54482C12.1341 6.32337 13.5671 6.21265 15 6.21265C16.4329 6.21265 17.8659 6.32337 19.3559 6.54482C19.8932 6.32337 20.446 6.21095 21.0013 6.21095H22.9101V8.11982C22.9101 8.76699 22.7582 9.41495 22.4672 10.0141C22.7616 11.1042 22.9101 12.1883 22.9101 13.2422C22.9101 13.4468 22.8838 13.6314 22.8732 13.8293C24.6531 14.0679 26.4854 14.3639 28.2422 14.7538Z" fill="#367AE3"/>
<path d="M5.33203 25.5476H24.6679C26.6069 25.5476 28.2422 27.1243 28.2422 29.0632H30V16.9507C29.4319 16.8434 23.3311 15.0342 15 15.0342C6.19741 15.0342 0.774845 16.8042 0 16.9507V29.0632H1.75781C1.75781 27.1243 3.39311 25.5476 5.33203 25.5476ZM12.3633 19.3952H14.1211V17.6374H15.8789V19.3952H17.6367V21.1531H15.8789V22.9109H14.1211V21.1531H12.3633V19.3952Z" fill="#367AE3"/>
</g>
<defs>
<clipPath id="clip0_23_1877">
<rect width="30" height="30" fill="white"/>
</clipPath>
</defs>
</svg>
