<svg width="27" height="30" viewBox="0 0 27 30" fill="none" xmlns="http://www.w3.org/2000/svg">
<g clip-path="url(#clip0_22_1694)">
<path d="M19.2805 7.91017C18.0295 7.91017 16.8535 7.42307 15.9689 6.53854L15.7648 6.33438L15.5607 6.53846C14.6761 7.42307 13.5 7.91017 12.2491 7.91017H7.56164C6.35004 7.91017 5.36438 6.92447 5.36438 5.71291V5.13486C5.36438 2.30343 7.66791 0 10.4992 0C10.9187 0 11.3377 0.0515625 11.7446 0.153282L15.8189 1.17188H17.5225C19.7035 1.17188 21.4777 2.9461 21.4777 5.12696V5.71291C21.4777 6.92447 20.492 7.91017 19.2805 7.91017Z" fill="#367AE3"/>
<path d="M19.2804 9.66745C18.0129 9.66745 16.8014 9.3039 15.7648 8.62598C14.7281 9.30378 13.5165 9.66745 12.2491 9.66745H7.12219V11.5718C7.12219 15.0505 9.94219 17.8706 13.421 17.8706C16.8998 17.8706 19.7198 15.0505 19.7198 11.5718V9.64246C19.5755 9.65849 19.4289 9.66745 19.2804 9.66745Z" fill="#367AE3"/>
<path d="M7.61949 17.1562C7.04096 17.7389 6.68274 18.5402 6.68274 19.4242V19.6628C6.90581 19.6404 7.13175 19.6286 7.36019 19.6286H8.44054V19.4242C8.44054 19.0952 8.54965 18.7911 8.73352 18.5463V18.1206C8.33325 17.8334 7.96042 17.5104 7.61949 17.1562Z" fill="#367AE3"/>
<path d="M18.1405 18.098C18.6401 18.3315 18.9875 18.8378 18.9875 19.4248V19.6291H19.4819C19.913 19.6291 20.3353 19.67 20.7453 19.7479V19.4248C20.7453 18.3858 20.2508 17.4605 19.4849 16.8711C19.0846 17.3286 18.6335 17.7403 18.1405 18.098Z" fill="#367AE3"/>
<path d="M10.4913 19.0771V19.6286L13.4211 22.5583L16.3508 19.6286V19.0771C15.4423 19.433 14.4541 19.6286 13.4211 19.6286C12.388 19.6286 11.3998 19.433 10.4913 19.0771Z" fill="#367AE3"/>
<path d="M19.8663 26.3671C20.3518 26.3671 20.7452 25.9736 20.7452 25.4883C20.7452 25.0028 20.3518 24.6094 19.8663 24.6094C19.3809 24.6094 18.9874 25.0028 18.9874 25.4883C18.9874 25.9736 19.3809 26.3671 19.8663 26.3671Z" fill="#367AE3"/>
<path d="M26.5981 29.0135L26.1695 25.5416C25.8055 22.5928 23.5715 20.2852 20.7453 19.7477V23.0027C21.7683 23.3655 22.5032 24.3425 22.5032 25.4882C22.5032 26.9422 21.3203 28.1249 19.8664 28.1249C18.4126 28.1249 17.2298 26.9422 17.2298 25.4882C17.2298 24.3425 17.9646 23.3655 18.9875 23.0027V19.6289H18.1086C18.1086 20.0951 17.9234 20.5422 17.5938 20.8719L14.6641 23.8016C14.3208 24.1448 13.871 24.3164 13.4211 24.3164C12.9713 24.3164 12.5215 24.1448 12.1782 23.8016L9.24846 20.8719C8.91886 20.5422 8.73365 20.0951 8.73365 19.6289H8.44067V21.7832C10.1183 22.1812 11.3703 23.6908 11.3703 25.4883V26.6602C11.3703 27.1455 10.9768 27.539 10.4915 27.539H9.34446C8.87113 27.539 8.46392 27.1754 8.44166 26.7027C8.41786 26.198 8.82006 25.7813 9.31959 25.7813H9.61253V25.5268C9.61253 24.407 8.73077 23.4646 7.61121 23.438C6.45791 23.4108 5.51098 24.341 5.51098 25.4883V25.7813H5.77912C6.25237 25.7813 6.65958 26.1449 6.68184 26.6177C6.70565 27.1224 6.30345 27.539 5.80395 27.539H4.63209C4.14669 27.539 3.75318 27.1455 3.75318 26.6602V25.4883C3.75318 23.6908 5.00524 22.1812 6.68287 21.7832V19.6631C3.58407 19.9737 1.06167 22.3918 0.672778 25.5416L0.244173 29.0135C0.179479 29.5376 0.588348 30 1.11645 30H25.7258C26.254 30 26.6628 29.5376 26.5981 29.0135Z" fill="#367AE3"/>
</g>
<defs>
<clipPath id="clip0_22_1694">
<rect width="26.8421" height="30" fill="white"/>
</clipPath>
</defs>
</svg>
