<svg width="30" height="30" viewBox="0 0 30 30" fill="none" xmlns="http://www.w3.org/2000/svg">
<g clip-path="url(#clip0_25_1886)">
<path d="M28.9701 13.3933C28.6268 13.0499 28.0704 13.0499 27.7272 13.3933C27.3839 13.7366 27.3839 14.2928 27.7272 14.6361C28.0593 14.9683 28.2422 15.4094 28.2422 15.8789C28.2422 16.8479 27.3948 17.6367 26.4258 17.6367H26.385C26.3841 17.6271 26.3854 17.6179 26.3846 17.6084C26.0224 13.6452 23.1564 10.4498 19.347 9.31782C19.1049 12.0027 16.8679 14.1211 14.1211 14.1211C11.2701 14.1211 8.95472 11.8434 8.86449 9.01395C7.70759 7.80598 6.11984 7.08984 4.45311 7.08984C4.19479 7.08984 3.94926 7.20317 3.78281 7.40058C3.61547 7.59799 3.54334 7.85891 3.58629 8.11296L4.25321 12.1118C3.26959 13.2087 2.55803 14.5125 2.16579 15.9321C0.964982 16.1785 0 17.2427 0 18.5156V20.2735C0 21.7274 1.24137 22.9101 2.69531 22.9101C2.73563 22.9101 2.77599 22.9076 2.81549 22.9025C2.83266 22.9033 2.84983 22.9033 2.86787 22.9041C3.46863 24.0818 4.30891 25.1289 5.33203 25.9743V29.1211C5.33203 29.6069 5.72514 30 6.21095 30H9.72655C10.2124 30 10.6055 29.6069 10.6055 29.1211V28.0958C10.8993 28.1225 11.1896 28.1836 11.4844 28.1836H15.8789V29.1211C15.8789 29.6069 16.272 30 16.7578 30H20.2734C20.7593 30 21.1524 29.6069 21.1524 29.1211V27.1296C24.129 25.611 26.0634 22.6757 26.3663 19.3946H26.4258C28.3647 19.3946 30 17.8179 30 15.8789C30 14.9399 29.6344 14.0576 28.9701 13.3933ZM6.21095 17.6367C5.72554 17.6367 5.33203 17.2433 5.33203 16.7578C5.33203 16.2723 5.72554 15.8789 6.21095 15.8789C6.69632 15.8789 7.08983 16.2723 7.08983 16.7578C7.08983 17.2433 6.69632 17.6367 6.21095 17.6367ZM16.7578 17.6367H11.4844C10.9986 17.6367 10.6055 17.2436 10.6055 16.7578C10.6055 16.272 10.9986 15.8789 11.4844 15.8789H16.7578C17.2436 15.8789 17.6367 16.272 17.6367 16.7578C17.6367 17.2436 17.2436 17.6367 16.7578 17.6367Z" fill="#367AE3"/>
<path d="M14.1211 5.33203C12.1821 5.33203 10.6055 6.90873 10.6055 8.84768C10.6055 10.7866 12.1821 12.3633 14.1211 12.3633C16.0601 12.3633 17.6367 10.7866 17.6367 8.84768C17.6367 6.90873 16.0601 5.33203 14.1211 5.33203Z" fill="#367AE3"/>
<path d="M21.1524 0C19.2135 0 17.6367 1.57671 17.6367 3.51563C17.6367 5.45455 19.2135 7.03125 21.1524 7.03125C23.0914 7.03125 24.668 5.45455 24.668 3.51563C24.668 1.57671 23.0914 0 21.1524 0Z" fill="#367AE3"/>
</g>
<defs>
<clipPath id="clip0_25_1886">
<rect width="30" height="30" fill="white"/>
</clipPath>
</defs>
</svg>
