<svg width="30" height="30" viewBox="0 0 30 30" fill="none" xmlns="http://www.w3.org/2000/svg">
<g clip-path="url(#clip0_2045_2532)">
<path d="M3.0762 0.111355C2.85355 0.164089 2.5137 0.281277 2.3262 0.369167C1.98636 0.521511 1.29495 1.03128 1.10745 1.25979C1.05472 1.32425 0.949248 1.44143 0.878936 1.52346C0.685577 1.74026 0.316436 2.39651 0.216827 2.69534C-0.00582968 3.35745 -0.00582969 3.35159 0.0117484 15.2344L0.0293266 26.8067L0.18167 27.1875C0.410186 27.7617 0.574248 28.1074 0.65628 28.1953C0.697295 28.2364 0.826202 28.3946 0.943389 28.5469C1.34183 29.0684 2.02151 29.5371 2.81253 29.8301L3.19339 29.9707L14.7891 29.9883C21.7735 29.9942 26.4903 29.9824 26.6543 29.9473C27.1582 29.8477 27.293 29.8008 27.7325 29.5899C28.1192 29.4024 28.3887 29.2266 28.6289 29.0039C28.9336 28.7227 29.3555 28.2246 29.3555 28.1367C29.3555 28.0957 29.3789 28.0664 29.4082 28.0664C29.4844 28.0664 29.8125 27.293 29.9121 26.8653C29.9883 26.5196 30 25.1485 29.9942 14.9532C29.9942 3.80276 29.9883 3.41604 29.8828 3.01175C29.7832 2.63675 29.5137 2.00979 29.42 1.93362C29.4024 1.91604 29.3496 1.83401 29.3028 1.74612C29.209 1.56448 28.6114 0.955105 28.3008 0.732449C27.9903 0.503933 27.3867 0.228542 26.9239 0.111355C26.5313 0.00588608 25.9629 2.67029e-05 15 0.00588608C4.28909 0.00588608 3.45706 0.0176048 3.0762 0.111355ZM16.9219 5.79495C20.2325 6.52737 22.7871 8.81839 23.8477 12C24.1465 12.9024 24.2578 13.5528 24.2989 14.6016C24.3516 16.0078 24.1231 17.291 23.5899 18.5508C22.2364 21.75 19.2832 23.8946 15.7852 24.211C14.3848 24.334 12.8086 24.1055 11.5606 23.584C11.2793 23.4668 10.9805 23.3555 10.8985 23.3379C10.8164 23.3262 9.73831 23.5489 8.50198 23.8418C7.27151 24.1348 6.16995 24.375 6.05862 24.375C5.91214 24.375 5.83597 24.3399 5.76565 24.2227C5.6719 24.0821 5.68362 23.9824 6.16995 21.627L6.67386 19.1778L6.43948 18.6387C5.90628 17.3907 5.71878 16.4414 5.71292 14.9707C5.71292 13.6817 5.80081 13.084 6.15237 12C6.59769 10.6348 7.33597 9.43362 8.34964 8.40237C9.78519 6.94925 11.5313 6.04104 13.5645 5.70706C14.2793 5.58987 16.2188 5.63675 16.9219 5.79495Z" fill="#367AE3"/>
<path d="M13.8809 7.75781C9.7852 8.48438 7.11919 12.2754 7.88677 16.2891C8.00981 16.9336 8.17388 17.4082 8.53716 18.1758L8.86528 18.8613L8.57231 20.2852C8.40825 21.0703 8.2852 21.7148 8.29106 21.7266C8.29692 21.7324 8.92973 21.5918 9.69145 21.4102L11.0801 21.082L11.795 21.4043C13.0196 21.9609 13.8399 22.1484 15.0411 22.1484C17.3028 22.1484 19.418 21.0879 20.7774 19.2832C22.6407 16.7988 22.7344 13.4941 21.0176 10.9102C19.9571 9.32227 18.3633 8.24414 16.4356 7.81641C15.8731 7.69336 14.4434 7.6582 13.8809 7.75781ZM12.2989 10.5176C12.4805 10.6055 12.5215 10.6816 13.0313 11.8184C13.5059 12.8906 13.5059 12.9023 13.0372 13.541C12.6973 14.0039 12.6739 14.1152 12.8262 14.4375C13.1836 15.1699 15.3926 17.0801 16.0254 17.2031C16.2715 17.25 16.4122 17.1738 16.8575 16.752C17.2032 16.418 17.3086 16.3711 17.6368 16.4004C17.8946 16.4238 19.5821 16.9277 19.7286 17.0273C19.9219 17.1504 20.0567 17.4844 20.004 17.7188C19.9571 17.9531 19.5411 18.5391 19.1895 18.8613C19.043 18.9961 18.7676 19.1836 18.586 19.2656C18.2696 19.4121 18.2051 19.4238 17.4024 19.4238C16.6055 19.418 16.5176 19.4063 15.9961 19.2305C14.8477 18.8496 13.6641 18.0527 12.4805 16.875C11.3614 15.7617 10.7051 14.7598 10.4239 13.7344C10.2481 13.084 10.2833 12.1699 10.5 11.748C10.6934 11.373 11.086 10.8926 11.42 10.6348C11.7071 10.4063 12.0118 10.3652 12.2989 10.5176Z" fill="#367AE3"/>
<path d="M14.209 5.68349C9.98436 6.04677 6.57421 9.21083 5.8535 13.4237C5.74804 14.0448 5.73046 14.3026 5.75975 15.205C5.80077 16.6171 6.01757 17.578 6.53905 18.7323L6.72655 19.1542L6.23436 21.5682C5.94725 22.9393 5.74804 24.0409 5.77147 24.1229C5.84179 24.41 5.9414 24.3983 8.45507 23.8007L10.8398 23.2382L11.4375 23.4784C12.8437 24.0409 13.9746 24.246 15.3808 24.1815C17.6601 24.0819 19.7402 23.203 21.3808 21.6444C22.9453 20.1561 23.9355 18.205 24.1992 16.0956C24.3047 15.287 24.2461 13.7929 24.082 13.037C23.3613 9.64442 20.8769 6.97255 17.5781 6.01747C16.5644 5.7245 15.2461 5.58974 14.209 5.68349ZM16.3945 7.76356C18.0234 8.07997 19.5879 9.01161 20.6484 10.3007C22.2598 12.2694 22.7285 15.0233 21.8555 17.4081C20.8066 20.2909 18.0644 22.2069 15 22.2069C13.8574 22.2069 12.8789 21.9725 11.6719 21.41L11.0801 21.1347L9.66796 21.4745C8.88866 21.6561 8.24413 21.7968 8.23241 21.785C8.22069 21.7792 8.3496 21.1171 8.51366 20.3202L8.80663 18.8729L8.48436 18.1815C7.916 16.9862 7.71679 16.119 7.71679 14.8827C7.7285 12.8964 8.44921 11.1737 9.87304 9.75575C11.0566 8.5663 12.5098 7.88075 14.2969 7.65224C14.6777 7.60536 15.9082 7.66981 16.3945 7.76356Z" fill="#ECECEC"/>
<path d="M11.1797 10.951C10.5352 11.6014 10.3477 12.0115 10.3535 12.7381C10.3535 13.4178 10.4766 13.8865 10.8399 14.619C11.209 15.3631 11.7246 16.0545 12.5215 16.8455C14.3789 18.6971 16.3184 19.6111 17.9004 19.3885C18.4746 19.3123 18.8555 19.1248 19.2481 18.7264C19.875 18.0994 20.0801 17.6483 19.8984 17.2967C19.7695 17.0506 19.6406 16.992 18.5039 16.6697C17.3438 16.3475 17.3027 16.3533 16.8164 16.8455C16.2891 17.3787 16.043 17.3846 15.293 16.8748C14.3672 16.2537 13.0195 14.9588 12.7793 14.4549C12.6152 14.115 12.6621 13.9334 13.0371 13.4471C13.4414 12.9315 13.4356 12.8787 12.9492 11.7654C12.457 10.6463 12.3281 10.4881 11.9121 10.4881C11.6426 10.4881 11.6192 10.5057 11.1797 10.951Z" fill="#ECECEC"/>
</g>
<defs>
<clipPath id="clip0_2045_2532">
<rect width="30" height="30" fill="white"/>
</clipPath>
</defs>
</svg>
