<svg width="148" height="57" viewBox="0 0 148 57" fill="none" xmlns="http://www.w3.org/2000/svg">
<g filter="url(#filter0_d_2001_2719)">
<rect x="6" y="6.25" width="45" height="45" rx="3.75" fill="#F8F9FC"/>
<g clip-path="url(#clip0_2001_2719)">
<path d="M44.3519 31.761L44.3617 31.733C42.0233 31.733 40.593 30.3002 38.873 29.0937C37.6241 28.2173 36.2232 27.46 34.2077 27.46C33.3018 27.46 32.5331 27.4671 31.8802 27.4874H29.9193C30.593 27.511 31.1333 28.064 31.1333 28.7477C31.1333 29.4314 30.5695 30.0136 29.874 30.0136H27.0815C27.0957 30.0147 27.1105 30.0179 27.1258 30.0179H31.5901C32.4905 30.1657 33.1783 30.9493 33.1783 31.8961C33.1783 32.6144 32.7795 33.2311 32.1954 33.5556C32.0539 33.593 31.3715 33.7753 30.4591 34.0186C29.8723 34.1608 29.314 34.3113 28.7916 34.4623L28.6785 34.4925C26.7182 35.0137 24.6076 35.5722 24.2252 35.6628C23.9711 35.6765 23.74 35.6644 23.5362 35.6144L16.5051 31.0328L15.2316 30.1069V30.1097C15.1709 30.0685 15.1065 30.0339 15.0404 30.0004C14.9469 29.9531 14.8502 29.9103 14.7475 29.879C14.6667 29.8543 14.5836 29.8367 14.4989 29.8241C14.4082 29.8104 14.317 29.8005 14.2236 29.8005C14.0973 29.8005 13.975 29.8131 13.8575 29.8378C12.8183 29.9279 12.0004 30.7945 12.0004 31.862C12.0004 32.426 12.2337 32.9307 12.6042 33.2981L12.6025 33.2997L12.6123 33.3069C12.7604 33.4518 12.926 33.5765 13.1112 33.6715L13.5952 34.0252L24.6164 42.0555L24.6175 42.0544C24.6617 42.072 24.7071 42.089 24.7524 42.1072C25.001 42.1939 25.2627 42.2505 25.5397 42.2505C25.702 42.2505 25.8599 42.2329 26.0129 42.2022L26.0675 42.1884C29.8013 41.2323 37.5164 39.2625 41.1278 38.3674C41.2169 38.3333 41.2999 38.3037 41.3879 38.2707C42.3091 38.0373 43.5657 37.7617 44.3524 37.7617V37.2323L44.3623 37.2312L44.3524 36.503V31.7615L44.3519 31.761Z" fill="#6199EF"/>
<path d="M24.8043 23.9448C24.9458 23.9064 25.6282 23.7246 26.5395 23.4819C27.1269 23.3397 27.6847 23.1892 28.2076 23.0382L28.3201 23.008C30.2804 22.4868 32.391 21.9283 32.7746 21.8377C33.0275 21.824 33.2597 21.835 33.4635 21.886L40.4946 26.4671L41.7676 27.393L41.7687 27.3914C41.8283 27.4326 41.8938 27.4672 41.9588 27.5001C42.0534 27.5484 42.1501 27.5913 42.2528 27.622C42.3325 27.6467 42.4167 27.6643 42.5014 27.6769C42.591 27.6907 42.6828 27.6995 42.7767 27.6995C42.9018 27.6995 43.0242 27.6868 43.1428 27.6621C44.1809 27.5721 44.9999 26.706 44.9999 25.639C44.9999 25.0739 44.766 24.5692 44.3961 24.2019L44.3972 24.2002L44.3879 24.1931C44.2399 24.0492 44.0743 23.924 43.8891 23.8295L43.405 23.4748L32.3839 15.4444L32.3828 15.4461C32.3375 15.4285 32.2921 15.4115 32.2468 15.3933C31.9993 15.3066 31.737 15.25 31.4595 15.25C31.2983 15.25 31.1404 15.2676 30.9874 15.2978L30.9322 15.3121C27.199 16.267 19.4833 18.238 15.873 19.1331C15.7839 19.1661 15.6998 19.1968 15.6129 19.2298C14.6918 19.4621 13.4351 19.7383 12.6484 19.7383V20.2688L12.6385 20.2699L12.6484 20.9981V25.7395L12.6385 25.7675C14.9759 25.7675 16.4073 27.2003 18.1273 28.4068C19.3762 29.2827 20.7765 30.0405 22.7926 30.0405C23.6985 30.0405 24.4672 30.0323 25.1201 30.0131H29.8739C30.5695 30.0131 31.1333 29.4463 31.1333 28.7473C31.1333 28.0482 30.593 27.5105 29.9193 27.4869C29.904 27.4858 29.8892 27.4825 29.8739 27.4825H25.4108C24.5104 27.3337 23.8225 26.5512 23.8225 25.6044C23.8225 24.8861 24.2213 24.2683 24.8054 23.9448H24.8043Z" fill="#0858B1"/>
</g>
</g>
<path d="M59.4899 14.49V11.25H60.9299V14.4C60.9299 15 61.1039 15.468 61.4519 15.804C61.8119 16.128 62.3279 16.29 62.9999 16.29C63.7079 16.29 64.3319 16.188 64.8719 15.984C65.1239 15.9 65.3399 15.792 65.5199 15.66V11.25H66.9599V20.25H65.5199V16.92C65.2799 17.076 65.0579 17.196 64.8539 17.28C64.3259 17.52 63.6779 17.64 62.9099 17.64C61.8299 17.64 60.9899 17.358 60.3899 16.794C59.7899 16.23 59.4899 15.462 59.4899 14.49ZM70.2546 19.098C69.3786 18.21 68.9406 17.094 68.9406 15.75C68.9406 14.406 69.3786 13.29 70.2546 12.402C71.1306 11.514 72.2226 11.07 73.5306 11.07C74.8386 11.07 75.9306 11.508 76.8066 12.384C77.6826 13.26 78.1206 14.352 78.1206 15.66V16.2H70.3806C70.4766 17.04 70.8186 17.73 71.4066 18.27C71.9946 18.81 72.7026 19.08 73.5306 19.08C74.4186 19.08 75.1806 18.81 75.8166 18.27C76.1046 18.03 76.3326 17.76 76.5006 17.46H77.9406C77.7246 18.024 77.4186 18.522 77.0226 18.954C76.0866 19.938 74.9226 20.43 73.5306 20.43C72.2226 20.43 71.1306 19.986 70.2546 19.098ZM70.4166 14.94H76.5906C76.4826 14.232 76.1526 13.638 75.6006 13.158C75.0486 12.666 74.3586 12.42 73.5306 12.42C72.7026 12.42 72.0066 12.666 71.4426 13.158C70.8786 13.638 70.5366 14.232 70.4166 14.94ZM80.8538 19.098C79.9898 18.21 79.5578 17.094 79.5578 15.75C79.5578 14.406 79.9898 13.29 80.8538 12.402C81.7178 11.514 82.7858 11.07 84.0578 11.07C85.5338 11.07 86.7038 11.598 87.5678 12.654C87.9398 13.122 88.2098 13.644 88.3778 14.22H86.9378C86.8058 13.896 86.6078 13.596 86.3438 13.32C85.7678 12.72 85.0058 12.42 84.0578 12.42C83.1818 12.42 82.4498 12.732 81.8618 13.356C81.2858 13.98 80.9978 14.778 80.9978 15.75C80.9978 16.722 81.2978 17.52 81.8978 18.144C82.4978 18.768 83.2178 19.08 84.0578 19.08C85.0418 19.08 85.8278 18.75 86.4158 18.09C86.6798 17.814 86.8838 17.484 87.0278 17.1H88.4678C88.3118 17.712 88.0358 18.27 87.6398 18.774C86.7278 19.878 85.5338 20.43 84.0578 20.43C82.7858 20.43 81.7178 19.986 80.8538 19.098ZM89.1056 12.6V11.25H96.8456V12.6H93.6956V20.25H92.2556V12.6H89.1056ZM98.2033 20.25V11.25H99.6433V14.94H104.683V11.25H106.123V20.25H104.683V16.29H99.6433V20.25H98.2033ZM116.835 20.25V11.25H118.275V20.25H116.835ZM108.645 20.25V11.25H110.085V14.31H112.245C113.253 14.31 114.075 14.598 114.711 15.174C115.347 15.738 115.665 16.44 115.665 17.28C115.665 18.12 115.347 18.828 114.711 19.404C114.075 19.968 113.253 20.25 112.245 20.25H108.645ZM110.085 18.9H112.245C112.869 18.9 113.355 18.75 113.703 18.45C114.051 18.15 114.225 17.76 114.225 17.28C114.225 16.8 114.051 16.41 113.703 16.11C113.355 15.81 112.869 15.66 112.245 15.66H110.085V18.9ZM120.791 20.25V11.25H122.231V18L122.213 18.18H122.249L127.091 11.25H128.711V20.25H127.271V13.5L127.289 13.32H127.253L122.411 20.25H120.791ZM122.087 7.65H123.437C123.437 7.974 123.551 8.238 123.779 8.442C124.007 8.634 124.343 8.73 124.787 8.73C125.231 8.73 125.567 8.634 125.795 8.442C126.023 8.238 126.137 7.974 126.137 7.65H127.487C127.487 8.31 127.247 8.85 126.767 9.27C126.287 9.69 125.627 9.9 124.787 9.9C123.947 9.9 123.287 9.69 122.807 9.27C122.327 8.85 122.087 8.31 122.087 7.65ZM59.7599 36.25V27.25H61.1999V30.94H66.2399V27.25H67.6799V36.25H66.2399V32.29H61.1999V36.25H59.7599ZM70.9213 35.098C70.0813 34.198 69.6613 33.082 69.6613 31.75C69.6613 30.418 70.0813 29.308 70.9213 28.42C71.7613 27.52 72.7813 27.07 73.9813 27.07C74.7373 27.07 75.3733 27.214 75.8893 27.502C76.4173 27.79 76.8013 28.102 77.0413 28.438L77.2033 28.708H77.2213V27.25H78.6613V36.25H77.2213V34.81H77.2033L77.0413 35.062C76.8253 35.386 76.4533 35.698 75.9253 35.998C75.3973 36.286 74.7493 36.43 73.9813 36.43C72.7813 36.43 71.7613 35.986 70.9213 35.098ZM71.9653 29.356C71.3893 29.98 71.1013 30.778 71.1013 31.75C71.1013 32.722 71.3893 33.52 71.9653 34.144C72.5533 34.768 73.2853 35.08 74.1613 35.08C75.0373 35.08 75.7633 34.768 76.3393 34.144C76.9273 33.52 77.2213 32.722 77.2213 31.75C77.2213 30.778 76.9273 29.98 76.3393 29.356C75.7633 28.732 75.0373 28.42 74.1613 28.42C73.2853 28.42 72.5533 28.732 71.9653 29.356ZM81.1877 39.67V27.25H82.6277V28.69H82.6457L82.8257 28.42C83.0297 28.108 83.3957 27.808 83.9237 27.52C84.4517 27.22 85.0997 27.07 85.8677 27.07C87.0677 27.07 88.0877 27.52 88.9277 28.42C89.7677 29.308 90.1877 30.418 90.1877 31.75C90.1877 33.082 89.7677 34.198 88.9277 35.098C88.0877 35.986 87.0677 36.43 85.8677 36.43C85.0997 36.43 84.4457 36.286 83.9057 35.998C83.3777 35.698 83.0177 35.386 82.8257 35.062L82.6457 34.81H82.6277V39.67H81.1877ZM83.4917 29.356C82.9157 29.98 82.6277 30.778 82.6277 31.75C82.6277 32.722 82.9157 33.52 83.4917 34.144C84.0797 34.768 84.8117 35.08 85.6877 35.08C86.5637 35.08 87.2897 34.768 87.8657 34.144C88.4537 33.52 88.7477 32.722 88.7477 31.75C88.7477 30.778 88.4537 29.98 87.8657 29.356C87.2897 28.732 86.5637 28.42 85.6877 28.42C84.8117 28.42 84.0797 28.732 83.4917 29.356ZM92.174 36.25V27.25H93.614V30.85H95.414L98.294 27.25H100.004L96.674 31.48L100.274 36.25H98.474L95.414 32.2H93.614V36.25H92.174ZM102.071 35.098C101.183 34.21 100.739 33.094 100.739 31.75C100.739 30.406 101.183 29.29 102.071 28.402C102.959 27.514 104.075 27.07 105.419 27.07C106.763 27.07 107.879 27.514 108.767 28.402C109.655 29.29 110.099 30.406 110.099 31.75C110.099 33.094 109.655 34.21 108.767 35.098C107.879 35.986 106.763 36.43 105.419 36.43C104.075 36.43 102.959 35.986 102.071 35.098ZM103.097 29.356C102.485 29.98 102.179 30.778 102.179 31.75C102.179 32.722 102.485 33.52 103.097 34.144C103.709 34.768 104.483 35.08 105.419 35.08C106.355 35.08 107.129 34.768 107.741 34.144C108.353 33.52 108.659 32.722 108.659 31.75C108.659 30.778 108.353 29.98 107.741 29.356C107.129 28.732 106.355 28.42 105.419 28.42C104.483 28.42 103.709 28.732 103.097 29.356ZM110.992 36.25L113.512 27.25H117.292L119.812 36.25H118.282L116.212 28.6H114.592L112.522 36.25H110.992ZM122.04 35.098C121.152 34.21 120.708 33.094 120.708 31.75C120.708 30.406 121.152 29.29 122.04 28.402C122.928 27.514 124.044 27.07 125.388 27.07C126.732 27.07 127.848 27.514 128.736 28.402C129.624 29.29 130.068 30.406 130.068 31.75C130.068 33.094 129.624 34.21 128.736 35.098C127.848 35.986 126.732 36.43 125.388 36.43C124.044 36.43 122.928 35.986 122.04 35.098ZM123.066 29.356C122.454 29.98 122.148 30.778 122.148 31.75C122.148 32.722 122.454 33.52 123.066 34.144C123.678 34.768 124.452 35.08 125.388 35.08C126.324 35.08 127.098 34.768 127.71 34.144C128.322 33.52 128.628 32.722 128.628 31.75C128.628 30.778 128.322 29.98 127.71 29.356C127.098 28.732 126.324 28.42 125.388 28.42C124.452 28.42 123.678 28.732 123.066 29.356ZM132.041 36.25V27.25H138.251V28.6H133.481V36.25H132.041Z" fill="#343843"/>
<path d="M59.0599 49.75V44.85H59.6899V46.985H62.3149V44.85H62.9449V49.75H62.3149V47.58H59.6899V49.75H59.0599ZM64.2738 49.302C63.9471 48.952 63.7838 48.518 63.7838 48C63.7838 47.482 63.9471 47.0503 64.2738 46.705C64.6005 46.355 64.9971 46.18 65.4638 46.18C65.7578 46.18 66.0051 46.236 66.2058 46.348C66.4111 46.46 66.5605 46.5813 66.6538 46.712L66.7168 46.817H66.7238V46.25H67.2838V49.75H66.7238V49.19H66.7168L66.6538 49.288C66.5698 49.414 66.4251 49.5353 66.2198 49.652C66.0145 49.764 65.7625 49.82 65.4638 49.82C64.9971 49.82 64.6005 49.6473 64.2738 49.302ZM64.6798 47.069C64.4558 47.3117 64.3438 47.622 64.3438 48C64.3438 48.378 64.4558 48.6883 64.6798 48.931C64.9085 49.1737 65.1931 49.295 65.5338 49.295C65.8745 49.295 66.1568 49.1737 66.3808 48.931C66.6095 48.6883 66.7238 48.378 66.7238 48C66.7238 47.622 66.6095 47.3117 66.3808 47.069C66.1568 46.8263 65.8745 46.705 65.5338 46.705C65.1931 46.705 64.9085 46.8263 64.6798 47.069ZM68.2662 51.08V46.25H68.8262V46.81H68.8332L68.9032 46.705C68.9826 46.5837 69.1249 46.467 69.3302 46.355C69.5356 46.2383 69.7876 46.18 70.0862 46.18C70.5529 46.18 70.9496 46.355 71.2762 46.705C71.6029 47.0503 71.7662 47.482 71.7662 48C71.7662 48.518 71.6029 48.952 71.2762 49.302C70.9496 49.6473 70.5529 49.82 70.0862 49.82C69.7876 49.82 69.5332 49.764 69.3232 49.652C69.1179 49.5353 68.9779 49.414 68.9032 49.288L68.8332 49.19H68.8262V51.08H68.2662ZM69.1622 47.069C68.9382 47.3117 68.8262 47.622 68.8262 48C68.8262 48.378 68.9382 48.6883 69.1622 48.931C69.3909 49.1737 69.6756 49.295 70.0162 49.295C70.3569 49.295 70.6392 49.1737 70.8632 48.931C71.0919 48.6883 71.2062 48.378 71.2062 48C71.2062 47.622 71.0919 47.3117 70.8632 47.069C70.6392 46.8263 70.3569 46.705 70.0162 46.705C69.6756 46.705 69.3909 46.8263 69.1622 47.069ZM72.5387 49.75V46.25H73.0987V47.65H73.7987L74.9187 46.25H75.5837L74.2887 47.895L75.6887 49.75H74.9887L73.7987 48.175H73.0987V49.75H72.5387ZM76.3877 49.302C76.0424 48.9567 75.8697 48.5227 75.8697 48C75.8697 47.4773 76.0424 47.0433 76.3877 46.698C76.7331 46.3527 77.1671 46.18 77.6897 46.18C78.2124 46.18 78.6464 46.3527 78.9917 46.698C79.3371 47.0433 79.5097 47.4773 79.5097 48C79.5097 48.5227 79.3371 48.9567 78.9917 49.302C78.6464 49.6473 78.2124 49.82 77.6897 49.82C77.1671 49.82 76.7331 49.6473 76.3877 49.302ZM76.7867 47.069C76.5487 47.3117 76.4297 47.622 76.4297 48C76.4297 48.378 76.5487 48.6883 76.7867 48.931C77.0247 49.1737 77.3257 49.295 77.6897 49.295C78.0537 49.295 78.3547 49.1737 78.5927 48.931C78.8307 48.6883 78.9497 48.378 78.9497 48C78.9497 47.622 78.8307 47.3117 78.5927 47.069C78.3547 46.8263 78.0537 46.705 77.6897 46.705C77.3257 46.705 77.0247 46.8263 76.7867 47.069ZM79.857 49.75L80.837 46.25H82.307L83.287 49.75H82.692L81.887 46.775H81.257L80.452 49.75H79.857ZM84.1533 49.302C83.808 48.9567 83.6353 48.5227 83.6353 48C83.6353 47.4773 83.808 47.0433 84.1533 46.698C84.4987 46.3527 84.9327 46.18 85.4553 46.18C85.978 46.18 86.412 46.3527 86.7573 46.698C87.1027 47.0433 87.2753 47.4773 87.2753 48C87.2753 48.5227 87.1027 48.9567 86.7573 49.302C86.412 49.6473 85.978 49.82 85.4553 49.82C84.9327 49.82 84.4987 49.6473 84.1533 49.302ZM84.5523 47.069C84.3143 47.3117 84.1953 47.622 84.1953 48C84.1953 48.378 84.3143 48.6883 84.5523 48.931C84.7903 49.1737 85.0913 49.295 85.4553 49.295C85.8193 49.295 86.1203 49.1737 86.3583 48.931C86.5963 48.6883 86.7153 48.378 86.7153 48C86.7153 47.622 86.5963 47.3117 86.3583 47.069C86.1203 46.8263 85.8193 46.705 85.4553 46.705C85.0913 46.705 84.7903 46.8263 84.5523 47.069ZM88.0426 49.75V46.25H90.4576V46.775H88.6026V49.75H88.0426ZM91.0162 49.75V46.25H91.5762V48.875L91.5692 48.945H91.5832L93.4662 46.25H94.0962V49.75H93.5362V47.125L93.5432 47.055H93.5292L91.6462 49.75H91.0162ZM94.9718 47.51V46.25H95.5318V47.475C95.5318 47.7083 95.5995 47.8903 95.7348 48.021C95.8748 48.147 96.0755 48.21 96.3368 48.21C96.6121 48.21 96.8548 48.1703 97.0648 48.091C97.1628 48.0583 97.2468 48.0163 97.3168 47.965V46.25H97.8768V49.75H97.3168V48.455C97.2235 48.5157 97.1371 48.5623 97.0578 48.595C96.8525 48.6883 96.6005 48.735 96.3018 48.735C95.8818 48.735 95.5551 48.6253 95.3218 48.406C95.0885 48.1867 94.9718 47.888 94.9718 47.51ZM99.1581 49.302C98.8174 48.9567 98.6471 48.5227 98.6471 48C98.6471 47.4773 98.8174 47.0433 99.1581 46.698C99.4987 46.3527 99.9234 46.18 100.432 46.18C100.941 46.18 101.365 46.3503 101.706 46.691C102.047 47.0317 102.217 47.4563 102.217 47.965V48.175H99.2071C99.2444 48.5017 99.3774 48.77 99.6061 48.98C99.8347 49.19 100.11 49.295 100.432 49.295C100.777 49.295 101.074 49.19 101.321 48.98C101.433 48.8867 101.522 48.7817 101.587 48.665H102.147C102.063 48.8843 101.944 49.078 101.79 49.246C101.426 49.6287 100.973 49.82 100.432 49.82C99.9234 49.82 99.4987 49.6473 99.1581 49.302ZM99.2211 47.685H101.622C101.58 47.4097 101.452 47.1787 101.237 46.992C101.022 46.8007 100.754 46.705 100.432 46.705C100.11 46.705 99.8394 46.8007 99.6201 46.992C99.4007 47.1787 99.2677 47.4097 99.2211 47.685ZM103.28 49.302C102.944 48.9567 102.776 48.5227 102.776 48C102.776 47.4773 102.944 47.0433 103.28 46.698C103.616 46.3527 104.031 46.18 104.526 46.18C105.1 46.18 105.555 46.3853 105.891 46.796C106.036 46.978 106.141 47.181 106.206 47.405H105.646C105.595 47.279 105.518 47.1623 105.415 47.055C105.191 46.8217 104.895 46.705 104.526 46.705C104.185 46.705 103.901 46.8263 103.672 47.069C103.448 47.3117 103.336 47.622 103.336 48C103.336 48.378 103.453 48.6883 103.686 48.931C103.919 49.1737 104.199 49.295 104.526 49.295C104.909 49.295 105.214 49.1667 105.443 48.91C105.546 48.8027 105.625 48.6743 105.681 48.525H106.241C106.18 48.763 106.073 48.98 105.919 49.176C105.564 49.6053 105.1 49.82 104.526 49.82C104.031 49.82 103.616 49.6473 103.28 49.302ZM106.944 49.75V46.25H107.504V47.65H108.204L109.324 46.25H109.989L108.694 47.895L110.094 49.75H109.394L108.204 48.175H107.504V49.75H106.944ZM110.765 49.302C110.438 48.952 110.275 48.518 110.275 48C110.275 47.482 110.438 47.0503 110.765 46.705C111.092 46.355 111.488 46.18 111.955 46.18C112.249 46.18 112.496 46.236 112.697 46.348C112.902 46.46 113.052 46.5813 113.145 46.712L113.208 46.817H113.215V46.25H113.775V49.75H113.215V49.19H113.208L113.145 49.288C113.061 49.414 112.916 49.5353 112.711 49.652C112.506 49.764 112.254 49.82 111.955 49.82C111.488 49.82 111.092 49.6473 110.765 49.302ZM111.171 47.069C110.947 47.3117 110.835 47.622 110.835 48C110.835 48.378 110.947 48.6883 111.171 48.931C111.4 49.1737 111.684 49.295 112.025 49.295C112.366 49.295 112.648 49.1737 112.872 48.931C113.101 48.6883 113.215 48.378 113.215 48C113.215 47.622 113.101 47.3117 112.872 47.069C112.648 46.8263 112.366 46.705 112.025 46.705C111.684 46.705 111.4 46.8263 111.171 47.069ZM114.617 49.75L115.317 48.49C115.201 48.4387 115.084 48.364 114.967 48.266C114.734 48.0513 114.617 47.776 114.617 47.44C114.617 47.0993 114.741 46.817 114.988 46.593C115.236 46.3643 115.565 46.25 115.975 46.25H117.557V49.75H116.997V48.63H115.877L115.261 49.75H114.617ZM115.38 46.957C115.245 47.0783 115.177 47.2393 115.177 47.44C115.177 47.6407 115.245 47.8017 115.38 47.923C115.52 48.0443 115.721 48.105 115.982 48.105H116.997V46.775H115.982C115.721 46.775 115.52 46.8357 115.38 46.957ZM120.5 49.75V46.25H121.06V47.65H121.76L122.88 46.25H123.545L122.25 47.895L123.65 49.75H122.95L121.76 48.175H121.06V49.75H120.5ZM123.757 49.75L124.737 46.25H126.207L127.187 49.75H126.592L125.787 46.775H125.157L124.352 49.75H123.757ZM127.746 49.75V46.25H128.306V48.875L128.299 48.945H128.313L130.196 46.25H130.826V49.75H130.266V47.125L130.273 47.055H130.259L128.376 49.75H127.746ZM131.806 49.75V46.25H132.366V47.685H134.326V46.25H134.886V49.75H134.326V48.21H132.366V49.75H131.806ZM135.867 49.75V46.25H136.427V48.875L136.42 48.945H136.434L138.317 46.25H138.947V49.75H138.387V47.125L138.394 47.055H138.38L136.497 49.75H135.867ZM139.927 49.75V46.25H140.487V47.65H141.187L142.307 46.25H142.972L141.677 47.895L143.077 49.75H142.377L141.187 48.175H140.487V49.75H139.927ZM143.748 49.302C143.422 48.952 143.258 48.518 143.258 48C143.258 47.482 143.422 47.0503 143.748 46.705C144.075 46.355 144.472 46.18 144.938 46.18C145.232 46.18 145.48 46.236 145.68 46.348C145.886 46.46 146.035 46.5813 146.128 46.712L146.191 46.817H146.198V46.25H146.758V49.75H146.198V49.19H146.191L146.128 49.288C146.044 49.414 145.9 49.5353 145.694 49.652C145.489 49.764 145.237 49.82 144.938 49.82C144.472 49.82 144.075 49.6473 143.748 49.302ZM144.154 47.069C143.93 47.3117 143.818 47.622 143.818 48C143.818 48.378 143.93 48.6883 144.154 48.931C144.383 49.1737 144.668 49.295 145.008 49.295C145.349 49.295 145.631 49.1737 145.855 48.931C146.084 48.6883 146.198 48.378 146.198 48C146.198 47.622 146.084 47.3117 145.855 47.069C145.631 46.8263 145.349 46.705 145.008 46.705C144.668 46.705 144.383 46.8263 144.154 47.069Z" fill="#636363"/>
<defs>
<filter id="filter0_d_2001_2719" x="0.3" y="0.55" width="56.4" height="56.4" filterUnits="userSpaceOnUse" color-interpolation-filters="sRGB">
<feFlood flood-opacity="0" result="BackgroundImageFix"/>
<feColorMatrix in="SourceAlpha" type="matrix" values="0 0 0 0 0 0 0 0 0 0 0 0 0 0 0 0 0 0 127 0" result="hardAlpha"/>
<feOffset/>
<feGaussianBlur stdDeviation="2.85"/>
<feComposite in2="hardAlpha" operator="out"/>
<feColorMatrix type="matrix" values="0 0 0 0 0 0 0 0 0 0 0 0 0 0 0 0 0 0 0.1 0"/>
<feBlend mode="normal" in2="BackgroundImageFix" result="effect1_dropShadow_2001_2719"/>
<feBlend mode="normal" in="SourceGraphic" in2="effect1_dropShadow_2001_2719" result="shape"/>
</filter>
<clipPath id="clip0_2001_2719">
<rect width="33" height="27" fill="white" transform="translate(11.9999 15.25)"/>
</clipPath>
</defs>
</svg>
