<svg width="138" height="145" viewBox="0 0 138 145" fill="none" xmlns="http://www.w3.org/2000/svg">
<path d="M73.3623 0.627533C71.6888 1.31483 68.2523 3.58594 64.6365 6.4248C61.4091 8.93495 60.931 8.96484 53.789 7.32129C49.2767 6.27539 46.6171 6.33516 45.0035 7.56035C43.5691 8.69589 42.4335 10.7279 40.9095 15.0311C38.7281 21.157 37.473 22.4121 31.616 24.2947C25.8486 26.1475 23.9062 27.283 22.8005 29.4047C22.0834 30.7793 22.2029 34.2457 23.1293 38.3994C24.1752 43.1807 24.1453 44.9139 23.0695 46.9758C22.5914 47.8723 21.0375 50.0537 19.6031 51.8467C16.2562 56.0602 15.2402 58.0623 15.2402 60.423C15.2402 62.7539 15.9873 64.1584 19.4238 68.2822C24.1154 73.9301 24.3544 74.9461 22.8603 82.1479C21.9041 86.7797 21.9339 89.7381 22.9201 91.0828C23.9361 92.4873 25.8486 93.7125 28.2691 94.5791C29.5839 95.0572 30.7793 95.5652 30.9884 95.7445C31.2574 95.9836 28.807 100.406 21.1869 113.555C10.7877 131.514 10.5187 132.022 11.3554 133.576C11.983 134.742 12.8496 134.891 20.9478 135.22C28.8966 135.578 28.8966 135.578 30.8689 136.505C31.9447 137.013 33.4089 137.999 34.1261 138.716C34.8433 139.433 36.965 142.511 38.8476 145.529C43.1209 152.402 43.6289 153 45.123 153C45.7505 153 46.5275 152.761 46.9459 152.432C47.3343 152.133 52.2949 143.856 57.9726 134.054C63.6503 124.253 68.3718 116.244 68.5212 116.244C68.6408 116.244 69.5074 116.782 70.4636 117.41C73.0336 119.173 74.8863 119.89 76.7988 119.89C78.771 119.89 80.2652 119.292 82.5662 117.559C83.4925 116.842 84.389 116.244 84.5086 116.244C84.658 116.244 89.3794 124.193 95.0273 133.875C101.303 144.693 105.636 151.835 106.203 152.283C106.921 152.91 107.309 153.03 108.116 152.88C108.684 152.791 109.311 152.582 109.55 152.372C109.789 152.193 111.463 149.653 113.316 146.754C118.396 138.686 118.545 138.477 120.219 137.341C122.788 135.578 123.685 135.399 131.425 135.07C139.911 134.682 140.33 134.622 141.226 133.726C142.78 132.172 142.81 132.261 131.783 113.316C126.195 103.723 121.623 95.8342 121.623 95.7744C121.623 95.7146 122.519 95.3859 123.655 94.9975C127.839 93.6229 129.811 92.1287 130.588 89.768C131.066 88.3635 130.827 85.674 129.811 80.9227C128.556 75.0955 128.914 73.7807 133.307 68.4914C136.385 64.8457 137.76 62.3355 137.76 60.5426C137.76 58.7496 136.445 56.2394 133.277 52.026C128.496 45.6012 128.347 45.0334 129.661 38.1603C130.677 32.9906 130.767 31.5861 130.229 29.8529C129.512 27.4025 127.301 25.9682 121.623 24.2051C115.228 22.2328 114.272 21.3064 111.941 14.9414C108.684 6.00644 107.04 5.13985 98.0156 7.32129C93.1447 8.5166 91.531 8.60625 89.6185 7.70976C88.722 7.2914 86.4509 5.7375 84.5683 4.21347C82.6857 2.71933 80.4744 1.13554 79.6675 0.74707C77.8148 -0.179306 75.4839 -0.209183 73.3623 0.627533ZM80.8628 15.5689C100.735 17.5711 116.304 31.9447 120.338 52.026C120.936 55.1338 121.025 64.0389 120.487 66.9375C116.961 85.2557 104.351 98.9121 86.9888 103.245C76.5597 105.845 65.7123 104.53 55.9107 99.5098C43.0013 92.8758 34.2158 80.2354 32.2435 65.533C31.7654 61.8873 32.0642 54.0879 32.8412 50.7709C36.457 34.9928 47.0355 23.0396 62.0367 17.84C68.4316 15.6287 74.3185 14.9115 80.8628 15.5689Z" fill="#4184EC"/>
<path d="M69.0293 22.6811C57.614 24.982 47.8424 32.3631 42.6129 42.6129C39.8935 47.9619 38.8476 52.2053 38.6385 58.6002C38.3994 65.6227 39.5349 71.0016 42.4635 76.8287C46.1092 84.0902 52.265 90.2461 59.6162 93.9217C68.4316 98.3144 79.1894 99.0316 88.5726 95.8939C98.1351 92.6965 105.994 85.8832 110.536 76.8287C111.702 74.5277 113.405 69.3879 113.883 66.6387C114.481 63.2619 114.421 56.0004 113.734 52.7432C112.12 45.0035 108.803 38.8178 103.275 33.2895C97.5375 27.552 90.6345 23.9062 82.9248 22.5914C79.309 21.9639 72.3761 21.9938 69.0293 22.6811ZM77.9642 37.3236C78.2631 37.6225 79.548 39.9533 80.7732 42.5232C84.3592 49.9043 85.7636 50.8904 94.1308 52.1156C99.6293 52.9523 100.765 53.3707 100.944 54.6557C101.034 55.1637 100.078 56.3291 96.7306 59.7059C93.6228 62.8734 92.2482 64.517 91.7701 65.5928C90.7242 67.9535 90.6644 70.5533 91.5609 75.7828C92.4873 81.2215 92.5172 81.6398 91.7402 82.3271C90.8437 83.134 89.7082 82.7754 84.897 80.2353C80.0859 77.6953 78.5021 77.2471 75.5138 77.4861C73.691 77.6355 72.9738 77.9344 68.5511 80.2353C63.0826 83.1041 62.0367 83.3133 61.3195 81.8191C60.9908 81.1019 61.0506 80.2353 61.8873 75.5437C62.7539 70.5533 62.8137 69.9258 62.4849 68.3121C61.8275 65.1744 60.9011 63.7998 56.598 59.6162C53.0719 56.2096 52.5937 55.6119 52.5937 54.7752C52.5937 54.0879 52.8029 53.6695 53.281 53.3408C53.6695 53.1018 56.2693 52.5639 59.1978 52.1455C67.6547 50.9203 68.85 50.0836 72.4658 42.7324C73.7209 40.1924 75.0357 37.8018 75.3943 37.4133C76.1414 36.6064 77.2172 36.5766 77.9642 37.3236Z" fill="#4184EC"/>
</svg>
