<svg width="150" height="160" viewBox="0 0 150 160" fill="none" xmlns="http://www.w3.org/2000/svg">
<g clip-path="url(#clip0_32_3182)">
<path d="M73.96 116.439C64.953 107.433 57.1221 99.6017 50.3057 92.7857V61.0216C50.3057 53.9851 56.9325 47.8125 64.4867 47.8125H70.3057C70.3057 44.5775 70.3057 40.3269 70.3057 37.1875H67.2153C62.2028 37.1875 57.8056 32.8774 57.8056 27.9641V9.81972C57.8056 5.18437 61.8296 0 67.2153 0H79.4153V27.8125H88.7902V0H100.306V27.8125H109.681V0H121.95V27.8125H131.325V0H142.771C148.157 0 152.181 5.18437 152.181 9.81972V27.9641C152.181 32.8774 147.784 37.1875 142.771 37.1875H140.306V47.8125H145.187C152.5 47.8125 159.993 53.8387 159.993 61.0216V146.244C159.993 153.186 152.659 160 145.187 160H72.9137L73.96 158.954C85.6804 147.233 85.6804 128.161 73.96 116.439ZM100.306 108.594V124.257C100.306 126.846 102.405 128.945 104.993 128.945C107.582 128.945 109.681 126.846 109.681 124.257V108.594H125.344C127.933 108.594 130.032 106.495 130.032 103.906C130.032 101.318 127.933 99.2188 125.344 99.2188H109.681V83.5555C109.681 80.9663 107.582 78.8679 104.993 78.8679C102.405 78.8679 100.306 80.9663 100.306 83.5555V99.2188H84.6421C82.0536 99.2188 79.9548 101.318 79.9548 103.906C79.9548 106.495 82.0536 108.594 84.6421 108.594H100.306Z" fill="#4184EC"/>
<path d="M6.05425 94.2789L7.67025 92.6623C15.7589 84.5743 28.8852 84.6223 36.9252 92.6618L48.4685 104.205L17.5959 135.077L6.05359 123.535C-2.01214 115.469 -2.01213 102.345 6.05425 94.2789Z" fill="#4184EC"/>
<path d="M67.3325 123.07C75.3983 131.136 75.3983 144.26 67.3325 152.326L65.7165 153.942C57.6508 162.008 44.5267 162.008 36.4605 153.942L24.2262 141.707L55.0982 110.835L67.3325 123.07Z" fill="#4184EC"/>
</g>
<defs>
<clipPath id="clip0_32_3182">
<rect width="160" height="160" fill="white" transform="matrix(-1 0 0 1 160 0)"/>
</clipPath>
</defs>
</svg>
