<svg width="135" height="132" viewBox="0 0 135 132" fill="none" xmlns="http://www.w3.org/2000/svg">
<g clip-path="url(#clip0_33_3206)">
<path fill-rule="evenodd" clip-rule="evenodd" d="M68.0005 95.005C64.1493 95.005 60.4196 94.4682 56.8816 93.4662L67.9924 117.597L79.1007 93.471C75.5689 94.4702 71.8451 95.005 68.0005 95.005Z" fill="#4184EC"/>
<path fill-rule="evenodd" clip-rule="evenodd" d="M13.9432 110.331C12.9471 108.486 12.4416 106.354 12.5909 104.118L13.0231 97.8752L8.88861 97.539C3.36815 106.335 0.147973 116.544 0.0204734 127.425C-0.215933 129.767 1.62511 131.801 3.98465 131.801L44.6111 131.796C38.7438 128.01 16.5965 115.24 13.9432 110.331Z" fill="#4184EC"/>
<path fill-rule="evenodd" clip-rule="evenodd" d="M122.962 97.8743L123.394 104.117C123.543 106.353 123.038 108.486 122.042 110.329C121.053 112.159 119.572 113.701 117.762 114.771L91.3824 131.789L132.016 131.784C134.177 131.805 135.994 130.013 135.985 127.81C135.929 116.784 132.698 106.437 127.111 97.5366L122.962 97.8743Z" fill="#4184EC"/>
<path fill-rule="evenodd" clip-rule="evenodd" d="M63.1654 126.09L45.8406 88.4623C43.4108 86.8906 41.1571 85.0692 39.1175 83.0342C34.428 78.3566 30.8665 72.5516 28.8842 66.072L1.84061 82.4785C-1.16785 84.2383 -0.200179 88.8136 3.25613 89.087L21.501 90.5962L20.5285 104.647C20.4342 106.059 21.1776 107.334 22.3343 107.989L58.3545 131.226C60.0078 132.297 62.2193 131.829 63.2931 130.179C63.9852 129.115 64.0358 127.82 63.5409 126.747L63.1654 126.09Z" fill="#4184EC"/>
<path fill-rule="evenodd" clip-rule="evenodd" d="M115.456 104.646L114.484 90.5958L132.716 88.5729C136.172 88.2998 137.25 83.7137 134.242 81.9539L107.114 66.0794C105.131 72.5557 101.571 78.3572 96.8833 83.0335C94.8374 85.0742 92.5759 86.9009 90.1373 88.4765L72.819 126.09L72.4432 126.747C71.9482 127.82 71.9988 129.115 72.6913 130.179C73.7657 131.828 75.9768 132.297 77.6306 131.226L113.65 107.989C114.807 107.334 115.55 106.059 115.456 104.646Z" fill="#4184EC"/>
<path fill-rule="evenodd" clip-rule="evenodd" d="M68.0005 87.0558C86.1115 87.0558 100.915 72.2885 100.915 54.2221V46.7443H35.0859V54.2221C35.0859 72.2885 49.8897 87.0558 68.0005 87.0558Z" fill="#4184EC"/>
<path fill-rule="evenodd" clip-rule="evenodd" d="M27.0937 38.9017C54.3647 38.9017 81.6356 38.9017 108.907 38.9017C111.107 38.9017 112.891 37.1221 112.891 34.927C112.891 32.732 111.107 30.9523 108.907 30.9523H101.909C99.6308 21.5948 97.8812 10.0986 91.4262 3.65889C85.6587 -2.09424 81.5097 0.690921 76.3932 4.12608C73.9777 5.74768 71.1971 7.61469 68.0117 7.61469C64.9119 7.61469 62.2113 5.73872 59.8567 4.10248C54.7514 0.55552 50.596 -2.33138 44.5911 3.65865C37.9352 10.2981 35.9681 21.5353 33.9888 30.9527H27.0939C24.8935 30.9527 23.1095 32.7321 23.1095 34.9274C23.1093 37.1221 24.8933 38.9017 27.0937 38.9017Z" fill="#4184EC"/>
</g>
<defs>
<clipPath id="clip0_33_3206">
<rect width="136" height="132" fill="white"/>
</clipPath>
</defs>
</svg>
