<svg width="137" height="169" viewBox="0 0 137 169" fill="none" xmlns="http://www.w3.org/2000/svg">
<g clip-path="url(#clip0_32_3174)">
<path d="M112.054 45.879C104.784 45.879 97.9485 43.0538 92.8076 37.9235L91.6213 36.7394L90.435 37.9231C85.2941 43.0538 78.4588 45.879 71.189 45.879H43.9466C36.905 45.879 31.1766 40.1619 31.1766 33.1349V29.7822C31.1766 13.3599 44.5641 0 61.0191 0C63.4571 0 65.8918 0.299063 68.2569 0.889035L91.9358 6.79688H101.837C114.512 6.79688 124.823 17.0874 124.823 29.7364V33.1349C124.823 40.1619 119.095 45.879 112.054 45.879Z" fill="#4184EC"/>
<path d="M112.054 56.0736C104.687 56.0736 97.6459 53.965 91.6213 50.033C85.5967 53.9643 78.5549 56.0736 71.189 56.0736H41.3928V67.1187C41.3928 87.2951 57.7819 103.652 78 103.652C98.2181 103.652 114.607 87.2951 114.607 67.1187V55.9286C113.769 56.0216 112.917 56.0736 112.054 56.0736Z" fill="#4184EC"/>
<path d="M44.2829 99.5074C40.9207 102.887 38.8387 107.535 38.8387 112.662V114.045C40.1352 113.915 41.4483 113.847 42.7759 113.847H49.0547V112.662C49.0547 110.754 49.6888 108.99 50.7574 107.57V105.101C48.4311 103.435 46.2643 101.561 44.2829 99.5074Z" fill="#4184EC"/>
<path d="M105.428 104.967C108.332 106.321 110.35 109.258 110.35 112.662V113.847H113.224C115.729 113.847 118.184 114.084 120.567 114.536V112.662C120.567 106.636 117.693 101.269 113.242 97.8507C110.915 100.504 108.293 102.892 105.428 104.967Z" fill="#4184EC"/>
<path d="M60.9733 110.65V113.848L78.0002 130.841L95.0269 113.848V110.65C89.7472 112.714 84.0041 113.848 78.0002 113.848C71.9963 113.848 66.2532 112.714 60.9733 110.65Z" fill="#4184EC"/>
<path d="M115.459 152.93C118.28 152.93 120.566 150.647 120.566 147.832C120.566 145.017 118.28 142.735 115.459 142.735C112.638 142.735 110.351 145.017 110.351 147.832C110.351 150.647 112.638 152.93 115.459 152.93Z" fill="#4184EC"/>
<path d="M154.582 168.278L152.091 148.141C149.975 131.038 136.992 117.654 120.567 114.537V133.416C126.512 135.52 130.783 141.186 130.783 147.832C130.783 156.264 123.909 163.124 115.459 163.124C107.01 163.124 100.135 156.264 100.135 147.832C100.135 141.186 104.406 135.52 110.351 133.416V113.848H105.243C105.243 116.551 104.166 119.145 102.251 121.057L85.2242 138.049C83.2292 140.04 80.6151 141.035 78.0004 141.035C75.3858 141.035 72.7717 140.04 70.7767 138.049L53.7498 121.057C51.8342 119.145 50.7578 116.551 50.7578 113.848H49.0551V126.343C58.8049 128.651 66.0816 137.406 66.0816 147.832V154.629C66.0816 157.444 63.7944 159.726 60.9737 159.726H54.3077C51.5568 159.726 49.1902 157.617 49.0608 154.876C48.9225 151.948 51.26 149.531 54.1632 149.531H55.8657V148.055C55.8657 141.56 50.7411 136.095 44.2345 135.94C37.5317 135.783 32.0284 141.178 32.0284 147.832V149.531H33.5868C36.3372 149.531 38.7038 151.64 38.8332 154.383C38.9715 157.31 36.6341 159.726 33.7311 159.726H26.9205C24.0995 159.726 21.8125 157.444 21.8125 154.629V147.832C21.8125 137.406 29.0892 128.651 38.8392 126.343V114.046C20.8297 115.847 6.17008 129.872 3.90992 148.141L1.41897 168.278C1.04298 171.318 3.41923 174 6.48846 174H149.512C152.582 174 154.958 171.318 154.582 168.278Z" fill="#4184EC"/>
</g>
<defs>
<clipPath id="clip0_32_3174">
<rect width="156" height="174" fill="white"/>
</clipPath>
</defs>
</svg>
