<svg width="151" height="159" viewBox="0 0 151 159" fill="none" xmlns="http://www.w3.org/2000/svg">
<mask id="mask0_33_3195" style="mask-type:luminance" maskUnits="userSpaceOnUse" x="0" y="0" width="159" height="159">
<path d="M159 0H0V159H159V0Z" fill="white"/>
</mask>
<g mask="url(#mask0_33_3195)">
<path d="M37.5763 0C24.7341 0 14.2852 10.7595 14.2852 23.6015V110.548C19.2794 105.991 25.8097 103.101 32.918 103.101H42.2344V0H37.5763Z" fill="#4184EC"/>
<path d="M140.057 112.418H32.918C22.9496 112.418 14.2852 120.803 14.2852 131.051C14.2852 141.206 22.5768 149.684 32.918 149.684H79.5V135.709H37.5763C35.0014 135.709 32.918 133.625 32.918 131.051C32.918 128.476 35.0014 126.392 37.5763 126.392C47.4933 126.392 128.996 126.392 139.896 126.392C140.524 123.987 141.455 121.708 142.946 119.788C146.227 115.562 143.459 112.418 140.057 112.418Z" fill="#4184EC"/>
<path d="M143.391 142.864C141.666 140.813 140.468 138.362 139.782 135.709H116.766V149.684H140.057C143.277 149.684 146.285 146.303 143.391 142.864Z" fill="#4184EC"/>
<path d="M98.1327 56.209C86.8828 56.209 77.4756 64.2247 75.3103 74.842H120.955C118.79 64.2247 109.383 56.209 98.1327 56.209Z" fill="#4184EC"/>
<path d="M98.1328 28.2598C92.9971 28.2598 88.8164 32.4404 88.8164 37.5763C88.8164 42.712 92.9971 46.8927 98.1328 46.8927C103.269 46.8927 107.45 42.712 107.45 37.5763C107.45 32.4404 103.269 28.2598 98.1328 28.2598Z" fill="#4184EC"/>
<path d="M130.74 0H51.5508V103.101H144.715V13.9746C144.715 6.25659 138.459 0 130.74 0ZM126.082 84.1581H70.1839C67.6092 84.1581 65.5256 82.0748 65.5256 79.5C65.5256 66.4518 73.2815 55.2498 84.382 50.0421C81.3796 46.7332 79.5 42.3863 79.5 37.5761C79.5 27.2999 87.8568 18.9434 98.1325 18.9434C108.409 18.9434 116.766 27.2999 116.766 37.5761C116.766 42.3863 114.886 46.7332 111.884 50.0421C122.984 55.2498 130.74 66.4518 130.74 79.5C130.74 82.0748 128.657 84.1581 126.082 84.1581Z" fill="#4184EC"/>
<path d="M88.8164 135.709V159L95.549 154.51C96.3321 153.987 97.2327 153.727 98.1328 153.727C99.0334 153.727 99.9345 153.987 100.717 154.51L107.45 159V135.709H88.8164Z" fill="#4184EC"/>
</g>
</svg>
